<svg width="1280" height="1024" viewBox="0 0 1280 1024" fill="none" xmlns="http://www.w3.org/2000/svg">
<g clip-path="url(#clip0_94_207)">
<g filter="url(#filter0_d_94_207)">
<path d="M339.258 551.49C339.328 551.49 339.348 551.5 339.428 551.58C339.998 552.05 340.748 553.17 339.148 554.18C339.118 554.2 338.978 554.26 338.918 554.27C337.418 554.09 335.938 553.92 334.468 553.83L333.718 553.79C333.218 553.77 332.728 553.76 332.228 553.76C331.238 553.76 330.268 553.82 329.308 553.94C328.348 554.06 327.408 554.25 326.498 554.52C325.608 554.79 324.748 555.16 323.938 555.61C320.688 557.38 318.228 560.8 318.778 564.27C319.008 565.99 319.898 567.65 321.118 569.02C322.348 570.41 323.898 571.46 325.648 572.24C329.158 573.79 333.238 574.27 337.298 574.77C353.548 576.71 370.128 575.82 386.098 572.27C387.098 572.06 388.098 571.82 389.088 571.57C390.078 571.32 391.078 571.1 392.058 570.81L393.538 570.4L394.928 570.02L395.668 569.81L396.038 569.71L396.228 569.66C396.268 569.72 396.288 569.82 396.318 569.9L396.968 571.95L397.288 572.98C397.358 573.3 397.658 573.77 397.258 573.75L394.658 574.68C390.798 576.04 386.998 577.57 383.278 579.28C375.818 582.65 368.668 586.68 361.878 591.25L360.188 592.42C354.258 596.53 348.658 601.12 343.408 606.06C340.828 608.51 338.458 611.15 337.208 614.23C335.978 617.24 335.938 620.89 337.688 623.4C338.538 624.66 339.838 625.58 341.308 626.15C342.798 626.7 344.458 626.9 346.088 626.78C346.908 626.73 347.718 626.57 348.508 626.36C348.898 626.25 349.288 626.13 349.688 625.97C349.788 625.93 349.888 625.9 349.978 625.86L350.188 625.77L350.238 625.75L350.668 625.57C351.238 625.31 351.798 625.03 352.338 624.72C352.338 624.72 353.248 624.31 354.448 623.61C355.658 622.92 357.148 621.94 358.398 621.13C362.548 618.21 361.498 620.01 359.338 622.36C359.478 622.27 358.158 623.64 356.638 624.92C355.148 626.23 353.368 627.34 353.368 627.34C352.768 627.66 352.158 627.97 351.528 628.24L351.288 628.34L351.228 628.36C351.018 628.45 350.798 628.54 350.578 628.61C350.138 628.78 349.688 628.92 349.228 629.05C347.378 629.55 345.458 629.73 343.538 629.52C341.628 629.32 339.708 628.72 338.038 627.6C336.358 626.51 335.018 624.82 334.288 622.96C332.848 619.17 333.528 615.06 335.278 611.72C337.028 608.37 339.638 605.75 342.188 603.35C347.338 598.58 352.788 594.12 358.558 590.13L360.288 588.94C367.208 584.28 374.498 580.17 382.098 576.73C385.888 574.99 389.758 573.44 393.698 572.05L394.008 571.94L394.348 573L394.368 573.07L394.278 573.1L392.768 573.52C391.768 573.81 390.748 574.04 389.738 574.3C388.728 574.56 387.718 574.8 386.698 575.01C370.418 578.64 353.528 579.54 336.958 577.56C334.888 577.3 332.828 577.07 330.728 576.66C328.638 576.26 326.518 575.71 324.488 574.81C322.468 573.92 320.518 572.61 319.008 570.89C317.498 569.19 316.318 567.06 315.988 564.66C315.828 563.47 315.878 562.24 316.158 561.07C316.438 559.9 316.928 558.8 317.558 557.81C318.818 555.83 320.578 554.28 322.558 553.18C323.548 552.63 324.598 552.17 325.688 551.84C326.758 551.52 327.848 551.3 328.938 551.16C330.028 551.02 331.118 550.96 332.198 550.95C332.738 550.95 333.278 550.95 333.808 550.98L334.608 551.02C336.178 551.11 337.718 551.29 339.238 551.47L339.258 551.49Z" fill="white"/>
<path d="M429.098 686.63C429.098 686.63 429.028 686.69 428.928 686.69C428.258 686.75 426.818 686.67 427.148 684.77C427.148 684.73 427.208 684.59 427.248 684.53L428.178 683.72L429.188 683C429.848 682.49 430.568 682.1 431.288 681.69C436.238 678.97 442.228 678.28 447.658 679.78C453.108 681.23 457.908 684.89 460.808 689.72C463.738 694.54 464.678 700.51 463.418 706C462.198 711.5 458.758 716.48 454.028 719.55C449.328 722.67 443.408 723.86 437.878 722.83C432.328 721.85 427.238 718.59 423.948 714.02C420.618 709.47 419.188 703.6 419.978 698.03L420.208 696.58L420.388 695.87L420.758 694.46C420.758 694.46 420.878 694.2 421.068 693.76C421.288 693.33 421.488 692.7 421.908 692.05C422.298 691.39 422.708 690.64 423.258 689.97C423.518 689.63 423.788 689.29 424.038 688.96C424.328 688.66 424.618 688.36 424.898 688.08C425.128 687.85 425.338 687.63 425.528 687.44C425.738 687.26 425.928 687.11 426.108 686.98C426.458 686.71 426.738 686.52 426.948 686.4C427.378 686.15 427.568 686.17 427.568 686.36C427.568 686.55 427.398 686.92 427.118 687.4C426.978 687.64 426.808 687.9 426.618 688.17C426.448 688.46 426.268 688.78 426.068 689.1C426.128 689.05 425.908 689.4 425.558 689.95C425.278 690.55 424.798 691.32 424.468 692.16C424.298 692.58 424.128 693 423.968 693.4C423.828 693.8 423.728 694.19 423.628 694.52C423.528 694.85 423.448 695.12 423.398 695.31C423.358 695.51 423.338 695.62 423.338 695.62L423.018 696.83C422.958 697.03 422.918 697.24 422.888 697.44L422.748 698.32C422.628 698.91 422.618 699.52 422.578 700.12C422.318 704.96 423.968 709.85 427.118 713.54C430.228 717.26 434.768 719.73 439.588 720.26C444.398 720.84 449.408 719.52 453.288 716.62C457.188 713.75 459.958 709.4 460.828 704.63C461.738 699.87 460.768 694.79 458.158 690.71C455.538 686.63 451.368 683.58 446.678 682.39C441.998 681.17 436.858 681.8 432.618 684.12C431.988 684.48 431.358 684.82 430.788 685.26L429.908 685.89L429.098 686.6V686.63Z" fill="white"/>
<path d="M435.108 759.47C435.108 759.47 435.168 759.51 435.198 759.61C435.298 759.92 435.378 760.41 435.238 760.86C435.088 761.3 434.718 761.73 433.688 761.74C433.648 761.74 433.488 761.72 433.418 761.69C431.988 760.62 430.888 759.19 430.108 757.66C429.088 755.69 428.578 753.56 428.368 751.45C428.148 749.34 428.248 747.22 428.558 745.15C429.198 741.07 430.418 737.26 431.008 733.47C431.288 731.58 431.458 729.69 431.268 727.86C431.108 726.04 430.628 724.24 429.888 722.55C428.408 719.16 425.868 716.22 422.748 714.25C419.628 712.23 415.948 711.41 412.148 711.54C408.338 711.64 404.508 712.48 400.568 713.22C396.628 713.94 392.488 714.55 388.258 713.95L387.388 713.8C387.268 713.78 387.148 713.76 387.028 713.73L386.308 713.57C385.838 713.44 385.358 713.32 384.898 713.16C384.898 713.16 383.808 712.77 382.488 711.95C381.158 711.15 379.648 709.87 378.738 708.55C377.948 707.46 377.608 706.65 377.508 706.15C377.398 705.66 377.468 705.49 377.648 705.54C378.028 705.64 378.788 706.63 379.928 707.56C379.838 707.43 381.118 708.64 382.728 709.41C383.528 709.8 384.358 710.14 385.008 710.32C385.648 710.52 386.098 710.62 386.098 710.62C386.498 710.73 386.888 710.85 387.298 710.94C387.498 710.98 387.698 711.04 387.908 711.07L388.608 711.19C389.058 711.25 389.508 711.31 389.968 711.34C393.648 711.64 397.428 710.98 401.248 710.26C405.068 709.53 409.018 708.71 413.148 708.75C415.208 708.79 417.288 709.01 419.328 709.63C421.348 710.24 423.258 711.18 424.978 712.38C428.418 714.77 431.138 718.15 432.718 722.04C433.508 723.98 433.998 726.06 434.128 728.17C434.248 730.26 434.068 732.34 433.728 734.33C433.058 738.32 431.868 742.06 431.318 745.79C431.068 747.62 430.978 749.48 431.188 751.29C431.378 753.1 431.828 754.87 432.628 756.41C433.258 757.63 434.088 758.71 435.148 759.5L435.108 759.47Z" fill="white"/>
<path d="M541.668 749.57C541.608 749.54 541.588 749.53 541.538 749.42C541.168 748.78 540.888 747.48 542.758 747.1C542.788 747.1 542.938 747.08 543.008 747.1C544.368 747.79 545.688 748.57 547.078 749.2C555.858 753.52 565.248 756.57 574.848 758.48C579.658 759.39 584.518 760.01 589.408 760.31C591.848 760.48 594.298 760.51 596.748 760.54L599.688 760.47C599.688 760.47 599.948 760.48 600.398 760.5C600.838 760.53 601.458 760.55 602.168 760.56C603.588 760.61 605.378 760.67 606.898 760.72C611.968 760.79 610.078 761.61 606.948 762.27C607.118 762.29 605.248 762.62 603.318 762.84C601.388 763.12 599.408 763.26 599.408 763.26L598.048 763.29L597.368 763.31H596.808H595.888L592.188 763.25L588.498 763.05C583.578 762.7 578.678 762.05 573.838 761.11C568.998 760.17 564.228 758.86 559.548 757.31C554.868 755.75 550.288 753.9 545.868 751.71C544.438 751.06 543.078 750.28 541.688 749.56L541.668 749.57Z" fill="white"/>
<path d="M528.388 812.72C528.318 812.72 528.298 812.72 528.208 812.66C527.578 812.29 526.608 811.32 528.018 810.05C528.048 810.03 528.168 809.94 528.238 809.93C529.808 809.88 531.368 809.75 532.938 809.77C542.968 809.58 553.008 810.8 562.758 813.12C567.628 814.32 572.418 815.82 577.108 817.6C579.458 818.47 581.758 819.48 584.048 820.49L586.768 821.79C586.768 821.79 586.998 821.92 587.398 822.15C587.798 822.37 588.338 822.7 588.948 823.1C590.168 823.9 591.728 824.87 592.908 825.83C597.018 828.89 594.908 828.39 592.058 827.13C592.188 827.23 590.508 826.41 588.758 825.66C587.028 824.86 585.228 824.15 585.228 824.15L584.028 823.58L583.428 823.29L582.928 823.05L582.098 822.69L578.788 821.26L575.418 819.95C570.908 818.28 566.298 816.87 561.618 815.74C556.938 814.6 552.178 813.82 547.398 813.27C542.618 812.74 537.798 812.48 532.988 812.58C531.458 812.56 529.938 812.69 528.408 812.74L528.388 812.72Z" fill="white"/>
<path d="M556.618 756.04C556.638 755.97 556.638 755.95 556.728 755.88C557.248 755.36 558.438 754.72 559.288 756.42C559.308 756.45 559.358 756.59 559.348 756.66L558.328 761.19L549.368 800.99C549.368 800.99 548.158 805.08 547.088 807.9C545.398 812.71 545.238 810.6 545.598 807.46C545.468 807.77 546.728 800.02 546.728 800.02L555.598 760.58L556.618 756.05V756.04Z" fill="white"/>
<path d="M588.238 763.15C588.258 763.08 588.258 763.06 588.348 762.99C588.868 762.47 590.058 761.83 590.908 763.53C590.928 763.56 590.978 763.7 590.968 763.77L589.948 768.3L580.988 808.1C580.988 808.1 579.778 812.19 578.708 815.01C577.018 819.82 576.858 817.71 577.218 814.57C577.088 814.88 578.348 807.13 578.348 807.13L587.218 767.69L588.238 763.16V763.15Z" fill="white"/>
<path d="M692.738 774.01C692.678 774 692.658 773.99 692.598 773.91C692.368 773.67 692.088 773.26 692.038 772.79C691.998 772.32 692.178 771.79 693.098 771.34C693.128 771.32 693.288 771.27 693.358 771.27C695.038 771.66 696.628 772.35 698.058 773.27C700.368 774.77 702.288 776.9 703.428 779.46C704.598 782 704.838 785.01 704.148 787.71C703.468 790.42 701.968 792.91 699.788 794.72C698.698 795.62 697.438 796.34 696.068 796.78C694.698 797.23 693.258 797.39 691.848 797.3C689.028 797.12 686.298 795.99 684.208 794.04C683.168 793.06 682.298 791.87 681.738 790.52C681.168 789.2 680.898 787.77 680.858 786.36C680.788 783.53 681.658 780.81 683.048 778.47C684.468 776.09 686.438 774.21 688.568 772.66C690.708 771.11 693.008 769.9 695.328 768.83C697.658 767.79 700.018 766.81 702.428 766C707.248 764.35 712.228 763.16 717.268 762.45C722.318 761.77 727.428 761.56 732.518 761.84L733.348 761.88H733.518L733.868 761.92L734.558 761.98L735.948 762.1C735.948 762.1 736.218 762.14 736.668 762.22C737.108 762.31 737.738 762.45 738.458 762.6C739.898 762.88 741.668 763.41 743.108 763.88C747.978 765.55 745.798 765.71 742.708 765.38C742.858 765.44 741.008 765.23 739.128 765.06C738.188 765 737.228 764.93 736.518 764.89C735.798 764.87 735.318 764.85 735.318 764.85L734.008 764.73L733.348 764.67H733.188L732.458 764.62L730.648 764.54C725.818 764.36 720.968 764.69 716.198 765.44C711.428 766.2 706.718 767.38 702.178 769.03C697.688 770.74 693.108 772.62 689.458 775.48C687.648 776.92 686.078 778.61 685.058 780.59C684.028 782.56 683.478 784.8 683.698 786.93C683.888 789.07 684.888 791 686.548 792.34C688.178 793.69 690.338 794.48 692.468 794.52C694.608 794.58 696.658 793.78 698.258 792.34C699.858 790.91 700.998 788.92 701.478 786.8C701.978 784.67 701.758 782.46 700.828 780.49C699.918 778.52 698.388 776.81 696.528 775.61C695.358 774.86 694.068 774.3 692.728 773.99L692.738 774.01Z" fill="white"/>
<path d="M739.928 802.81C739.988 802.82 740.008 802.83 740.068 802.91C740.298 803.15 740.578 803.56 740.628 804.03C740.668 804.5 740.488 805.03 739.568 805.48C739.538 805.5 739.378 805.55 739.308 805.55C737.628 805.16 736.038 804.47 734.608 803.55C732.298 802.05 730.378 799.92 729.238 797.36C728.068 794.82 727.828 791.81 728.518 789.11C729.198 786.4 730.698 783.91 732.878 782.1C733.968 781.2 735.228 780.48 736.598 780.04C737.968 779.59 739.408 779.43 740.818 779.52C743.638 779.7 746.368 780.83 748.458 782.78C749.498 783.76 750.368 784.95 750.928 786.3C751.498 787.62 751.768 789.05 751.808 790.46C751.878 793.29 751.008 796.01 749.618 798.35C748.198 800.73 746.228 802.61 744.098 804.16C741.958 805.71 739.658 806.92 737.338 807.99C735.008 809.03 732.648 810.01 730.238 810.82C725.418 812.47 720.438 813.66 715.398 814.37C710.348 815.05 705.238 815.26 700.148 814.98L699.318 814.94H699.148L698.798 814.9L698.108 814.84L696.718 814.72C696.718 814.72 696.448 814.68 695.998 814.6C695.558 814.51 694.928 814.37 694.208 814.22C692.768 813.94 690.998 813.41 689.558 812.94C684.688 811.27 686.868 811.11 689.958 811.44C689.808 811.38 691.658 811.59 693.538 811.76C694.478 811.82 695.438 811.89 696.148 811.93C696.868 811.95 697.348 811.97 697.348 811.97L698.658 812.09L699.318 812.15H699.478L700.208 812.2L702.018 812.28C706.848 812.46 711.698 812.13 716.468 811.38C721.238 810.62 725.948 809.44 730.488 807.79C734.978 806.08 739.558 804.2 743.208 801.34C745.018 799.9 746.588 798.21 747.608 796.23C748.638 794.26 749.188 792.02 748.968 789.89C748.778 787.75 747.778 785.82 746.118 784.48C744.488 783.13 742.328 782.34 740.198 782.3C738.058 782.24 736.008 783.04 734.408 784.48C732.808 785.91 731.668 787.9 731.188 790.02C730.688 792.15 730.908 794.36 731.838 796.33C732.748 798.3 734.278 800.01 736.138 801.21C737.308 801.96 738.598 802.52 739.938 802.83L739.928 802.81Z" fill="white"/>
<path d="M838.348 242.27C838.368 242.21 838.378 242.18 838.468 242.12C839.018 241.65 840.258 241.04 840.998 242.78C841.008 242.81 841.048 242.96 841.048 243.02L840.348 245.38C840.228 245.77 840.128 246.17 839.988 246.56L838.478 250.77C835.788 257.6 832.278 264.06 828.298 270.17C824.298 276.27 819.828 282.02 815.188 287.59C812.868 290.37 810.498 293.11 808.098 295.82L804.498 299.87L803.598 300.88L803.148 301.39L802.918 301.64L802.858 301.7L802.828 301.73C798.608 298.08 801.678 300.7 800.738 299.88L800.848 299.75L802.568 297.67C807.138 292.12 811.588 286.43 816.128 280.81C818.588 277.78 821.048 274.76 823.618 271.79C826.198 268.83 828.928 265.93 832.028 263.38C835.138 260.86 838.668 258.66 842.648 257.5C843.148 257.37 843.638 257.2 844.148 257.1L845.668 256.81C846.718 256.63 847.818 256.58 848.918 256.67C850.018 256.77 851.168 257.03 852.258 257.62C853.348 258.2 854.308 259.22 854.798 260.42C855.298 261.63 855.328 262.98 855.078 264.11C854.828 265.26 854.378 266.28 853.868 267.2C853.348 268.13 852.768 268.98 852.158 269.8L850.408 272.14L843.398 281.48L829.388 300.15L822.378 309.49L818.878 314.16L818.768 314.31L818.718 314.38C817.718 313.65 820.928 316.07 816.458 312.75L816.488 312.71L816.708 312.41L817.148 311.82L818.038 310.65L819.828 308.33C824.638 302.17 829.638 296.16 834.918 290.38C840.208 284.61 845.728 279.01 852.058 274.2C852.828 273.57 853.668 273.02 854.498 272.47C855.338 271.92 856.158 271.33 857.018 270.85C858.738 269.85 860.648 268.85 862.868 268.48C863.988 268.3 865.128 268.3 866.268 268.53C867.398 268.76 868.538 269.22 869.498 270.01C870.468 270.79 871.178 271.86 871.578 272.98C871.988 274.1 872.118 275.26 872.068 276.39C871.918 279.26 870.538 281.65 869.158 283.68C867.748 285.71 866.328 287.59 864.888 289.54C862.008 293.4 859.058 297.2 856.048 300.95C853.028 304.7 849.948 308.39 846.788 312.03C845.208 313.85 843.618 315.65 842.008 317.44C840.408 319.23 838.738 321 837.198 322.76C835.668 324.53 834.278 326.36 833.358 328.35C832.898 329.34 832.548 330.39 832.378 331.41L832.318 331.78V331.87L832.268 332.56C832.268 333.02 832.288 333.48 832.348 333.94C832.348 333.94 832.368 334.87 832.708 336.11C833.028 337.34 833.798 338.81 834.778 339.74C835.628 340.5 836.338 340.87 836.758 341.08C837.178 341.32 837.298 341.47 837.148 341.59C836.998 341.68 836.568 341.78 835.958 341.71C835.348 341.64 834.548 341.41 833.788 340.94C833.848 341.01 833.428 340.76 832.828 340.26C832.248 339.74 831.528 338.93 830.978 338C830.418 337.07 830.048 336.04 829.828 335.25C829.608 334.46 829.548 333.9 829.548 333.9C829.478 333.33 829.478 332.76 829.508 332.18L829.538 331.75L829.558 331.53C829.558 331.53 829.558 331.46 829.568 331.42L829.748 330.38C830.288 327.92 831.478 325.71 832.858 323.78C834.238 321.84 835.808 320.13 837.338 318.47C843.428 311.83 849.298 304.98 854.918 297.94C857.728 294.42 860.478 290.85 863.158 287.23C864.488 285.43 865.868 283.58 867.088 281.79C868.278 280.01 869.218 278.13 869.298 276.26C869.378 274.64 868.868 273.05 867.758 272.18C866.658 271.27 864.938 270.97 863.338 271.24C861.698 271.51 860.068 272.31 858.448 273.26C857.618 273.73 856.858 274.28 856.068 274.8C855.278 275.32 854.488 275.83 853.748 276.44C847.678 281.06 842.208 286.57 836.998 292.27C831.778 297.98 826.818 303.94 822.048 310.05L820.278 312.35L819.398 313.5L818.958 314.08L818.748 314.37L818.718 314.41C814.228 311.07 817.488 313.46 816.498 312.71L816.548 312.64L816.658 312.49L820.158 307.82L827.168 298.48L841.178 279.81L848.188 270.47L849.938 268.14C850.498 267.39 851.008 266.64 851.438 265.87C852.308 264.33 852.748 262.69 852.238 261.52C851.978 260.91 851.538 260.44 850.918 260.09C850.298 259.75 849.508 259.54 848.678 259.47C847.848 259.4 846.978 259.43 846.118 259.58L844.778 259.84C844.328 259.92 843.898 260.08 843.458 260.19C839.948 261.21 836.728 263.19 833.808 265.56C830.898 267.95 828.268 270.74 825.738 273.64C823.218 276.56 820.758 279.57 818.318 282.58C813.788 288.18 809.338 293.87 804.738 299.46L803.008 301.55L802.898 301.68C801.948 300.87 804.988 303.54 800.758 299.88L800.788 299.85L800.848 299.79L801.078 299.54L801.528 299.04L802.428 298.03L806.018 293.99C808.398 291.29 810.758 288.57 813.058 285.81C817.648 280.29 822.048 274.62 825.968 268.65C829.858 262.67 833.268 256.38 835.878 249.77L837.338 245.7C837.468 245.33 837.568 244.94 837.688 244.57L838.358 242.3L838.348 242.27Z" fill="white"/>
<path d="M842.148 335.28L831.088 348.86L844.298 348.33L842.148 335.28Z" fill="white"/>
<path d="M311.738 440.73C311.678 440.76 311.658 440.77 311.548 440.76C310.838 440.71 309.508 440.3 310.188 438.52C310.198 438.49 310.278 438.35 310.328 438.31C311.698 437.5 313.118 436.78 314.548 436.09C326.208 430.64 339.748 429.3 352.218 432.59C358.458 434.21 364.358 437.01 369.638 440.67C372.278 442.5 374.768 444.55 377.058 446.81L378.288 448.07C378.608 448.41 378.948 448.73 379.248 449.09C379.248 449.09 379.918 449.96 380.778 451.15C381.178 451.77 381.628 452.46 382.088 453.17C382.508 453.89 382.908 454.64 383.268 455.32C385.548 459.95 383.888 458.49 381.938 456.11C381.968 456.18 381.698 455.86 381.258 455.34C380.838 454.81 380.228 454.11 379.578 453.42C378.958 452.71 378.288 452.04 377.788 451.53C377.288 451.02 376.948 450.68 376.948 450.68L376.038 449.74L375.588 449.27L375.148 448.81L374.328 448.04C372.148 445.98 369.798 444.08 367.298 442.41C362.288 439.09 356.748 436.57 350.928 435.11C345.108 433.68 339.028 433.25 333.048 433.85C327.078 434.47 321.188 436.05 315.748 438.6C314.398 439.26 313.048 439.93 311.758 440.7L311.738 440.73Z" fill="white"/>
<path d="M323.418 388.55C323.388 388.49 323.368 388.47 323.378 388.35C323.388 387.59 323.838 386.36 325.628 387.01C325.658 387.02 325.798 387.09 325.838 387.14C326.578 388.45 327.418 389.7 328.278 390.94C335.358 400.89 345.958 408.36 357.778 411.45C363.678 413.03 369.868 413.47 375.948 412.92C378.988 412.64 382.018 412.11 384.968 411.32L386.578 410.85C386.998 410.72 387.438 410.61 387.848 410.46C387.848 410.46 388.848 410.19 390.218 409.83C390.898 409.63 391.658 409.4 392.438 409.17C393.208 408.92 393.978 408.66 394.698 408.44C399.408 406.64 397.998 408.1 395.288 409.87C395.368 409.85 394.998 410.07 394.378 410.41C393.768 410.77 392.908 411.21 392.018 411.63C391.138 412.08 390.228 412.46 389.528 412.75C388.838 413.04 388.368 413.23 388.368 413.23L387.048 413.62L386.388 413.82L385.748 414.01L384.598 414.29C381.528 415.05 378.398 415.57 375.248 415.8C368.948 416.25 362.558 415.69 356.448 414C350.348 412.29 344.558 409.53 339.388 405.88C334.238 402.22 329.668 397.73 325.998 392.56C325.098 391.25 324.208 389.93 323.418 388.55Z" fill="white"/>
<path d="M348.138 451.28C348.118 451.35 348.118 451.37 348.028 451.44C347.488 451.94 346.278 452.54 345.488 450.81C345.478 450.78 345.428 450.63 345.438 450.57L346.618 446.08L357.548 404.59C357.548 404.59 358.908 400.54 360.078 397.77C361.948 393.02 362.028 395.14 361.548 398.26C361.688 397.96 360.148 405.66 360.148 405.66L349.318 446.8L348.138 451.29V451.28Z" fill="white"/>
<path d="M399.688 318.98C399.618 319.02 399.588 319.04 399.468 319.04C399.028 319.04 398.478 318.9 398.208 318.53C397.918 318.16 397.918 317.55 398.158 316.78C398.158 316.75 398.208 316.63 398.238 316.59C399.238 316 399.978 314.95 400.458 313.69C400.978 312.37 401.218 310.85 401.328 309.32C401.388 308.54 401.388 307.79 401.388 306.97C401.388 306.14 401.388 305.3 401.438 304.45C401.528 302.75 401.718 301 402.318 299.25C402.878 297.51 404.058 295.75 405.748 294.67C407.478 293.6 409.328 293.33 410.948 293.07C412.568 292.83 414.078 292.6 415.188 291.99C416.278 291.39 416.948 290.37 417.308 288.99C417.668 287.62 417.738 286.07 417.848 284.39C417.988 282.67 418.268 280.86 419.208 279.11C419.688 278.25 420.378 277.4 421.288 276.82C422.198 276.23 423.248 275.93 424.188 275.83C426.088 275.63 427.728 275.91 429.078 275.74C430.408 275.59 431.268 274.99 431.788 273.86C432.318 272.72 432.448 271.13 432.648 269.49C432.748 268.67 432.858 267.8 433.078 266.91C433.198 266.46 433.308 266.02 433.518 265.56C433.618 265.33 433.708 265.1 433.818 264.88L434.198 264.24C434.268 264.14 434.328 264.03 434.398 263.93L434.578 263.71L434.708 263.55L434.968 263.23C435.138 263.01 435.348 262.84 435.538 262.65C435.918 262.26 436.368 261.97 436.788 261.65C436.788 261.65 437.068 261.51 437.528 261.27C437.998 261.06 438.668 260.79 439.468 260.62C441.048 260.22 443.158 260.34 444.668 260.99C445.308 261.26 445.808 261.53 446.168 261.83C446.538 262.1 446.768 262.36 446.918 262.57C447.228 262.98 447.208 263.16 447.028 263.18C446.638 263.24 445.588 262.61 444.178 262.46C444.318 262.52 442.648 262.18 441.008 262.65C440.188 262.84 439.438 263.24 438.908 263.54C438.658 263.71 438.448 263.86 438.298 263.96C438.168 264.08 438.088 264.14 438.088 264.14C437.778 264.35 437.518 264.6 437.258 264.86C437.118 264.98 437.028 265.13 436.908 265.27L436.828 265.37L436.728 265.49C436.668 265.55 436.648 265.62 436.598 265.69C436.428 265.96 436.258 266.23 436.158 266.53C435.648 267.7 435.528 269.26 435.328 270.87C435.118 272.47 434.948 274.33 433.728 276.09C433.118 276.95 432.238 277.65 431.258 278.04C430.278 278.44 429.298 278.54 428.418 278.56C426.658 278.59 425.108 278.39 423.908 278.69C422.748 278.95 421.958 279.74 421.438 280.98C420.918 282.21 420.718 283.68 420.638 285.23C420.528 286.83 420.438 288.56 419.868 290.34C419.568 291.23 419.118 292.12 418.458 292.9C417.808 293.68 416.938 294.29 416.068 294.69C414.298 295.49 412.558 295.64 411.028 295.89C409.478 296.13 408.088 296.44 407.098 297.17C405.018 298.6 404.388 301.7 404.278 304.73C404.248 305.5 404.228 306.28 404.238 307.07C404.238 307.88 404.238 308.74 404.158 309.58C404.028 311.27 403.768 312.99 403.108 314.69C402.508 316.3 401.408 317.97 399.728 318.97L399.688 318.98Z" fill="white"/>
<path d="M417.038 333.87C416.968 333.91 416.938 333.93 416.818 333.93C416.378 333.93 415.828 333.79 415.558 333.42C415.268 333.05 415.268 332.44 415.508 331.67C415.508 331.64 415.558 331.52 415.588 331.48C416.578 330.88 417.328 329.84 417.808 328.58C418.328 327.26 418.568 325.74 418.678 324.21C418.738 323.43 418.738 322.68 418.738 321.86C418.738 321.03 418.738 320.19 418.788 319.34C418.878 317.64 419.068 315.89 419.668 314.14C420.228 312.4 421.408 310.64 423.098 309.56C424.828 308.49 426.678 308.22 428.298 307.96C429.918 307.72 431.428 307.49 432.538 306.88C433.628 306.28 434.298 305.26 434.658 303.88C435.018 302.51 435.088 300.96 435.198 299.28C435.338 297.56 435.618 295.75 436.558 294C437.038 293.14 437.728 292.29 438.638 291.71C439.548 291.12 440.598 290.82 441.538 290.72C443.438 290.52 445.078 290.8 446.428 290.63C447.758 290.48 448.618 289.88 449.138 288.75C449.668 287.61 449.798 286.02 449.998 284.38C450.098 283.56 450.208 282.69 450.428 281.8C450.548 281.35 450.658 280.91 450.868 280.45C450.968 280.22 451.058 279.99 451.168 279.77L451.548 279.13C451.618 279.03 451.678 278.92 451.748 278.82L451.928 278.6L452.058 278.44L452.318 278.12C452.488 277.9 452.698 277.73 452.888 277.54C453.268 277.15 453.718 276.86 454.138 276.54C454.138 276.54 454.418 276.4 454.878 276.16C455.348 275.95 456.018 275.68 456.818 275.51C458.398 275.11 460.508 275.23 462.018 275.88C462.658 276.15 463.158 276.42 463.518 276.72C463.888 276.99 464.118 277.25 464.268 277.46C464.578 277.87 464.558 278.05 464.378 278.07C463.988 278.13 462.938 277.5 461.528 277.35C461.668 277.41 459.998 277.07 458.358 277.54C457.538 277.73 456.788 278.13 456.258 278.43C456.008 278.6 455.798 278.75 455.648 278.85C455.518 278.97 455.438 279.03 455.438 279.03C455.128 279.24 454.868 279.49 454.608 279.75C454.468 279.87 454.378 280.02 454.258 280.16L454.178 280.26L454.078 280.38C454.018 280.44 453.998 280.51 453.948 280.58C453.778 280.85 453.608 281.12 453.508 281.42C452.998 282.59 452.878 284.15 452.678 285.76C452.468 287.36 452.298 289.22 451.078 290.98C450.468 291.84 449.588 292.54 448.608 292.93C447.628 293.33 446.648 293.43 445.768 293.45C444.008 293.48 442.458 293.28 441.258 293.58C440.098 293.84 439.308 294.63 438.788 295.87C438.268 297.1 438.068 298.57 437.988 300.12C437.878 301.72 437.788 303.45 437.218 305.23C436.918 306.12 436.468 307.01 435.808 307.79C435.158 308.57 434.288 309.18 433.418 309.58C431.648 310.38 429.908 310.53 428.378 310.78C426.828 311.02 425.438 311.33 424.448 312.06C422.368 313.49 421.738 316.59 421.628 319.62C421.598 320.39 421.578 321.17 421.588 321.96C421.588 322.77 421.588 323.63 421.508 324.47C421.378 326.16 421.118 327.88 420.458 329.58C419.858 331.19 418.758 332.86 417.078 333.86L417.038 333.87Z" fill="white"/>
<path d="M525.458 193.91C525.398 193.91 525.378 193.92 525.288 193.87C524.988 193.75 524.568 193.5 524.318 193.09C524.078 192.69 523.998 192.13 524.668 191.32C524.688 191.29 524.818 191.19 524.888 191.16C525.768 190.96 526.658 190.92 527.538 190.93C527.978 190.95 528.418 190.97 528.848 191.04C529.068 191.06 529.278 191.1 529.498 191.14L529.818 191.2L529.978 191.23L530.058 191.25L530.708 191.42C533.418 192.18 535.858 193.73 537.748 195.74C539.648 197.73 541.038 200.09 542.108 202.52C544.198 207.4 545.248 212.5 545.968 217.6C546.308 220.15 546.558 222.71 546.758 225.25L547.028 229.06L547.148 230.96V231.2L547.168 231.26V231.29C549.608 230.86 543.848 231.91 544.438 231.79L544.408 231.67L544.278 231.2L544.018 230.25C542.688 225.19 542.198 219.94 542.428 214.75C542.648 210.01 543.408 205.3 544.678 200.74C544.978 199.6 545.348 198.47 545.698 197.34C546.078 196.19 546.538 195.05 547.088 193.94C548.198 191.76 549.728 189.52 552.188 188.19C553.408 187.54 554.808 187.19 556.218 187.22C557.628 187.24 558.978 187.68 560.158 188.31C562.528 189.59 564.278 191.64 565.378 194.01C566.438 196.36 566.818 198.84 567.008 201.23C567.178 203.63 567.138 205.95 567.248 208.22C567.428 212.78 567.958 217.31 569.208 221.61C570.448 225.9 572.508 229.92 575.478 233.18C578.418 236.4 582.288 238.87 586.498 239.53C590.688 240.18 595.258 239.19 598.508 236.54C599.318 235.89 600.048 235.14 600.648 234.3C601.288 233.48 601.698 232.57 602.058 231.61C602.698 229.67 602.818 227.52 602.368 225.49C601.968 223.45 600.958 221.56 599.548 220.14C598.818 219.45 598.008 218.88 597.098 218.48C596.188 218.08 595.198 217.85 594.188 217.76C590.098 217.46 585.878 219.61 583.098 222.8C580.218 226.06 578.448 230.27 576.968 234.57C575.478 238.89 574.218 243.45 571.988 247.75C570.878 249.89 569.528 251.96 567.778 253.75C567.388 254.17 566.718 254.77 566.868 254.63L566.758 254.73L566.548 254.92C565.968 255.42 565.368 255.89 564.738 256.33C564.738 256.33 563.758 256.95 562.308 257.52C560.868 258.1 558.928 258.52 557.338 258.46C555.988 258.43 555.138 258.2 554.678 257.99C554.218 257.79 554.128 257.63 554.278 257.52C554.588 257.27 555.838 257.27 557.268 256.91C557.188 256.91 557.578 256.81 558.198 256.65C558.808 256.46 559.648 256.19 560.438 255.78C562.048 255.02 563.438 253.83 563.438 253.83C563.958 253.46 564.468 253.05 564.948 252.61L565.068 252.5C565.458 252.15 565.818 251.77 566.178 251.38C566.898 250.61 567.518 249.76 568.108 248.86C569.288 247.07 570.238 245.1 571.068 243.05C572.728 238.96 573.868 234.55 575.598 230.23C577.328 225.95 579.658 221.59 583.588 218.51C585.518 217 587.768 215.89 590.188 215.29C592.608 214.74 595.278 214.73 597.698 215.68C600.148 216.58 602.178 218.45 603.468 220.62C604.748 222.81 605.418 225.3 605.428 227.81C605.478 230.31 604.828 232.85 603.508 235.05C602.178 237.2 600.278 238.95 598.128 240.16C595.968 241.38 593.588 242.12 591.148 242.38C588.718 242.67 586.238 242.45 583.868 241.77C579.158 240.39 575.148 237.33 572.208 233.6C569.208 229.88 567.278 225.41 566.128 220.89C564.978 216.34 564.548 211.7 564.418 207.11C564.348 204.81 564.368 202.57 564.138 200.42C563.918 198.28 563.448 196.18 562.488 194.44C561.528 192.71 560.028 191.21 558.288 190.48C556.568 189.7 554.658 189.86 553.088 190.88C551.508 191.88 550.298 193.64 549.408 195.54C548.958 196.5 548.578 197.49 548.238 198.54C547.898 199.6 547.578 200.66 547.288 201.73C546.128 206.01 545.418 210.42 545.218 214.84C544.998 219.78 545.468 224.75 546.718 229.51L546.968 230.4L547.088 230.84L547.118 230.95C547.718 230.86 541.938 231.89 544.378 231.44V231.41V231.35V231.11L544.248 229.21L543.988 225.43C543.798 222.92 543.558 220.42 543.218 217.94C542.528 213.01 541.488 208.07 539.568 203.61C538.598 201.39 537.358 199.33 535.748 197.64C534.168 195.96 532.158 194.7 529.978 194.09L529.458 193.95H529.398L529.268 193.91L529.018 193.86C528.848 193.82 528.678 193.79 528.508 193.78C528.168 193.73 527.828 193.71 527.488 193.7C526.808 193.7 526.138 193.73 525.478 193.88L525.458 193.91Z" fill="white"/>
<path d="M681.938 247.65C681.938 247.65 681.868 247.71 681.758 247.73C681.038 247.88 679.698 247.79 679.888 245.9C679.888 245.87 679.928 245.72 679.968 245.66L683.258 242.39L728.668 197.24C728.668 197.24 731.888 194.44 734.308 192.64C738.318 189.49 737.318 191.36 735.328 193.81C735.608 193.62 730.378 199.48 730.378 199.48L685.238 244.38L681.948 247.65H681.938Z" fill="white"/>
<path d="M709.568 192.38C709.498 192.38 709.478 192.38 709.388 192.31C708.768 191.91 707.878 190.9 709.348 189.69C709.378 189.67 709.498 189.59 709.568 189.58H714.208H729.828H733.738H735.858H737.808H738.298C738.348 189.69 738.308 189.89 738.328 190.04V191.01V199.5V210.25C738.328 210.25 738.038 214.51 737.608 217.49C737.008 222.56 736.398 220.53 736.058 217.39C735.998 217.72 735.528 209.88 735.528 209.88V192.36H709.578L709.568 192.38Z" fill="white"/>
<path d="M684.518 213.08C684.518 213.08 684.458 213.01 684.438 212.9C684.288 212.18 684.378 210.84 686.268 211.03C686.298 211.03 686.448 211.07 686.498 211.11L689.758 214.41L708.128 232.97L709.948 234.81C709.948 234.81 712.738 238.04 714.538 240.46C717.678 244.48 715.818 243.48 713.368 241.48C713.558 241.76 707.708 236.51 707.708 236.51L706.148 234.93L687.768 216.37L684.498 213.07L684.518 213.08Z" fill="white"/>
<path d="M904.368 394.51C904.348 394.45 904.338 394.42 904.368 394.32C904.548 393.61 905.218 392.44 906.838 393.44C906.868 393.46 906.988 393.55 907.018 393.61L908.518 398L912.778 410.5L913.248 411.88L913.458 411.45C914.028 410.4 914.648 409.39 915.398 408.47C917.188 406.2 919.378 404.32 921.768 402.81C924.128 401.3 926.838 400.07 929.678 399.54C935.308 398.41 941.428 399.54 946.178 402.88C950.918 406.18 954.258 411.3 955.428 416.94C956.578 422.61 955.418 428.61 952.468 433.5C951.018 435.97 949.098 438.16 946.838 439.94C944.588 441.75 941.928 443 939.178 443.8C936.418 444.58 933.528 444.82 930.678 444.61C929.258 444.46 927.838 444.26 926.458 443.87C925.758 443.71 925.088 443.45 924.408 443.23C924.068 443.12 923.738 442.96 923.408 442.83L923.118 442.71L926.568 451.93C926.568 451.93 926.858 452.95 927.258 454.33C927.648 455.72 928.118 457.48 928.448 458.96C929.668 463.91 928.378 462.23 926.968 459.41C926.998 459.6 925.908 457.19 924.998 455.18C924.368 453.78 923.828 452.57 923.828 452.57L923.048 450.48L920.018 442.41L918.628 438.7L917.928 436.84L917.758 436.4C917.718 436.34 917.808 436.42 917.828 436.42L917.938 436.49L918.168 436.63L919.088 437.19C920.288 437.95 921.588 438.69 922.858 439.44C923.178 439.64 923.488 439.81 923.788 439.95L924.458 440.24C924.748 440.36 925.018 440.49 925.318 440.59C929.958 442.3 935.238 442.33 939.888 440.64C944.548 438.98 948.408 435.42 950.678 431C952.978 426.61 953.738 421.38 952.488 416.61C951.268 411.84 948.218 407.49 944.088 404.82C939.978 402.14 934.738 401.28 929.928 402.33C927.508 402.83 925.268 403.86 923.148 405.24C921.038 406.59 919.128 408.25 917.608 410.18C916.958 410.98 916.428 411.84 915.948 412.73L915.778 413.07C915.688 413.26 915.538 413.55 915.438 413.8C915.228 414.34 915.068 415.01 914.878 415.6L914.608 416.52L914.348 417.62L913.828 419.81L913.598 420.78C913.558 420.92 913.518 421.15 913.488 421.22L913.378 420.89L912.868 419.39L911.798 416.26L910.138 411.38L905.878 398.88L904.378 394.49L904.368 394.51Z" fill="white"/>
<path d="M883.998 403.07C883.978 403.01 883.968 402.98 883.998 402.88C884.178 402.17 884.848 401 886.468 402C886.498 402.02 886.618 402.11 886.648 402.17L888.148 406.56L907.598 463.62C907.598 463.62 908.698 467.74 909.258 470.71C910.328 475.7 909.088 473.98 907.758 471.12C907.808 471.45 904.838 464.18 904.838 464.18L885.498 407.47L883.998 403.08V403.07Z" fill="white"/>
<path d="M967.858 561.74C967.918 561.73 967.948 561.72 968.048 561.77C968.698 562.02 969.878 562.79 968.708 564.31C968.688 564.34 968.578 564.45 968.508 564.47C967.708 564.68 966.898 564.82 966.088 564.96C965.688 565.03 965.278 565.1 964.868 565.15L964.258 565.23L963.958 565.27L963.808 565.29L963.248 565.35L962.058 565.44C955.688 565.88 949.408 564.92 943.328 563.7C937.238 562.43 931.268 561.01 925.238 559.67L916.218 557.63L911.708 556.61L909.448 556.1L909.308 556.07C909.158 556.66 910.388 550.89 909.888 553.34H909.928L909.998 553.36L910.288 553.42L910.858 553.53L911.998 553.76C918.068 555 924.098 556.39 930.098 557.95C933.408 558.83 936.718 559.74 939.998 560.79C943.278 561.81 946.538 562.94 949.758 564.27C950.558 564.62 951.368 564.93 952.158 565.31L954.528 566.47C956.058 567.28 957.638 568.17 959.078 569.42C960.508 570.65 961.768 572.36 962.258 574.34C962.518 575.33 962.588 576.41 962.388 577.48C962.188 578.55 961.688 579.58 960.998 580.4C959.598 582.04 957.678 582.91 955.728 583.24C953.778 583.55 951.888 583.31 950.148 582.96C946.718 582.2 943.478 581.38 940.138 580.6L920.228 575.84L910.268 573.46L905.288 572.27L904.668 572.12L904.358 572.05L904.198 572.01H904.158C904.948 566.51 904.398 570.48 904.588 569.26H904.668L905.968 569.36C906.838 569.43 907.708 569.48 908.568 569.6C915.488 570.33 922.248 572.09 928.758 574.44C935.248 576.84 941.488 579.86 947.438 583.36C948.928 584.25 950.378 585.11 951.868 586.09C953.338 587.08 954.828 588.23 956.018 589.78C957.208 591.35 957.978 593.31 957.928 595.41C957.908 597.53 956.708 599.71 954.858 600.81C953.738 601.51 952.508 601.85 951.328 602C950.148 602.15 948.988 602.13 947.858 602.02C945.618 601.81 943.448 601.18 941.458 600.62L929.288 597.22L904.958 590.42C902.938 589.87 900.928 589.36 898.908 588.95C897.898 588.75 896.888 588.57 895.878 588.43L895.018 588.32C894.758 588.28 894.498 588.25 894.238 588.23C893.718 588.19 893.198 588.12 892.688 588.11C892.688 588.11 891.678 587.97 890.298 587.88C888.918 587.8 887.178 587.82 885.718 587.93C885.108 588.02 884.598 588.07 884.178 588.12C883.768 588.19 883.438 588.22 883.198 588.23C882.708 588.25 882.538 588.16 882.608 587.99C882.758 587.66 883.908 586.94 885.468 586.4C885.288 586.42 887.178 585.83 889.178 585.59C890.178 585.45 891.188 585.4 891.948 585.36C892.708 585.35 893.218 585.34 893.218 585.34L894.798 585.48L896.688 585.72C900.738 586.33 904.628 587.43 908.448 588.49L931.408 594.91L942.888 598.12C943.858 598.39 944.778 598.65 945.688 598.85C946.608 599.05 947.528 599.19 948.448 599.26C950.258 599.42 952.098 599.23 953.358 598.44C953.888 598.09 954.348 597.68 954.638 597.11C954.958 596.58 955.108 595.97 955.128 595.32C955.168 594 954.648 592.59 953.778 591.46C951.998 589.12 948.868 587.53 946.018 585.76C940.198 582.33 934.108 579.39 927.798 577.06C921.478 574.78 914.928 573.08 908.268 572.38C907.438 572.27 906.598 572.22 905.768 572.15L904.518 572.05H904.438C904.608 570.81 903.998 574.8 904.818 569.28H904.858L905.018 569.33L905.328 569.4L905.948 569.55L910.928 570.74L920.888 573.12L940.798 577.88C944.098 578.66 947.478 579.51 950.708 580.22C952.298 580.54 953.868 580.71 955.298 580.48C956.698 580.26 958.058 579.59 958.868 578.61C959.688 577.65 959.908 576.37 959.558 575.04C959.208 573.7 958.388 572.51 957.238 571.52C956.098 570.52 954.698 569.71 953.208 568.93L950.978 567.84C950.228 567.48 949.448 567.18 948.678 566.84C945.588 565.56 942.398 564.44 939.158 563.44C935.938 562.41 932.658 561.51 929.378 560.64C923.438 559.09 917.448 557.71 911.438 556.48L910.308 556.25L909.748 556.14L909.468 556.09H909.398L909.368 556.07C908.848 558.52 910.028 552.73 909.918 553.33L910.058 553.36L912.318 553.87L916.828 554.89L925.848 556.93C931.858 558.27 937.888 559.7 943.868 560.95C949.848 562.15 955.898 563.05 961.858 562.64L962.968 562.56L963.498 562.5L963.638 562.48L963.918 562.44L964.488 562.37C964.868 562.33 965.248 562.27 965.618 562.2C966.368 562.07 967.118 561.94 967.848 561.75L967.858 561.74Z" fill="white"/>
<path d="M892.188 572.17C892.188 572.1 892.188 572.07 892.258 571.98C892.658 571.33 893.678 570.51 894.878 571.96C894.898 571.99 894.978 572.11 894.988 572.17C894.978 573.66 895.068 575.15 895.238 576.64C895.948 582.86 898.208 588.9 901.708 594.07C905.208 599.25 910.038 603.51 915.578 606.44C918.338 607.92 921.288 609.04 924.318 609.8C925.848 610.19 927.318 610.47 928.798 610.49C930.258 610.51 931.698 610.3 932.828 609.7C933.948 609.1 934.728 608.09 934.978 606.9C935.238 605.69 934.978 604.3 934.398 603.07C934.328 602.94 934.218 602.71 934.188 602.66L934.118 602.54L933.968 602.29C933.868 602.13 933.748 601.97 933.638 601.81C933.408 601.5 933.158 601.22 932.888 600.95C932.888 600.95 932.728 600.78 932.458 600.49C932.178 600.21 931.768 599.83 931.248 599.42C930.208 598.6 928.688 597.74 927.368 597.07C925.098 595.99 924.418 595.51 924.768 595.32C925.098 595.14 926.408 595.27 927.978 595.64C927.828 595.57 929.698 596.01 931.568 596.89C932.498 597.32 933.418 597.88 934.068 598.37C934.718 598.85 935.128 599.26 935.128 599.26C935.488 599.64 935.818 600.04 936.108 600.47C936.258 600.68 936.388 600.9 936.528 601.12L936.628 601.29L936.658 601.34L936.738 601.49L936.898 601.8C937.098 602.21 937.278 602.64 937.418 603.08C937.998 604.82 938.118 606.86 937.338 608.74C936.568 610.63 934.868 612.01 933.098 612.63C931.318 613.28 929.508 613.35 927.798 613.23C926.058 613.11 924.428 612.7 922.848 612.29C919.658 611.43 916.588 610.17 913.698 608.58C907.938 605.39 902.878 600.87 899.228 595.36C895.578 589.86 893.228 583.52 892.478 576.96C892.298 575.37 892.188 573.77 892.208 572.16L892.188 572.17Z" fill="white"/>
<path d="M854.398 704.76C854.348 704.75 854.328 704.74 854.278 704.66C854.098 704.41 853.858 703.97 853.828 703.49C853.808 703.02 853.978 702.48 854.978 702.13C855.018 702.12 855.188 702.08 855.258 702.09C855.718 702.21 856.068 702.41 856.478 702.57C856.888 702.73 857.258 702.92 857.608 703.13C857.968 703.33 858.338 703.53 858.688 703.74L859.708 704.42C862.278 706.18 864.548 708.26 866.608 710.53C868.658 712.81 870.508 715.29 871.968 718.05C873.408 720.8 874.518 723.88 874.508 727.21C874.498 730.47 873.418 733.62 871.768 736.34C868.448 741.77 862.718 745.66 856.308 746.39C855.908 746.43 855.508 746.5 855.108 746.5H853.898C853.088 746.54 852.288 746.37 851.488 746.29C849.898 746.05 848.368 745.58 846.908 744.97C843.968 743.75 841.388 741.89 839.128 739.78C836.868 737.65 834.948 735.21 833.288 732.64C831.638 730.07 830.238 727.39 828.908 724.7C827.588 722.01 826.348 719.32 825.038 716.69C823.718 714.06 822.338 711.52 820.598 709.31C819.718 708.22 818.778 707.2 817.708 706.35C816.638 705.48 815.518 704.81 814.298 704.42C811.858 703.61 809.168 704.09 807.038 705.6L806.638 705.88L806.398 706.09L806.298 706.18C806.238 706.24 806.158 706.29 806.098 706.36L805.748 706.77C805.538 707.07 805.318 707.36 805.158 707.7C805.158 707.7 804.648 708.42 804.318 709.62C803.968 710.8 803.938 712.45 804.408 713.71C804.828 714.75 805.338 715.37 805.638 715.72C805.928 716.1 805.988 716.29 805.808 716.34C805.638 716.37 805.188 716.3 804.658 715.98C804.108 715.68 803.488 715.11 802.998 714.35C803.028 714.44 802.758 714.03 802.448 713.29C802.148 712.55 801.908 711.48 801.898 710.38C801.868 709.28 802.078 708.17 802.358 707.36C802.478 706.95 802.628 706.62 802.738 706.39C802.848 706.16 802.908 706.03 802.908 706.03C803.198 705.58 803.478 705.12 803.858 704.73C804.038 704.52 804.208 704.32 804.428 704.14L804.578 704L804.888 703.73C805.058 703.59 805.218 703.49 805.388 703.36C806.048 702.88 806.778 702.48 807.538 702.14C809.058 701.47 810.758 701.15 812.438 701.24C814.118 701.34 815.758 701.83 817.198 702.62C820.058 704.21 822.198 706.57 823.938 709.08C825.668 711.6 827.008 714.27 828.298 716.9C829.588 719.54 830.808 722.19 832.108 724.77C833.408 727.35 834.798 729.85 836.388 732.19C837.988 734.5 839.818 736.67 841.918 738.49C844.018 740.31 846.368 741.82 848.928 742.72C851.488 743.65 854.188 743.92 856.848 743.5C862.158 742.6 867.028 739.08 869.708 734.4C871.058 732.07 871.778 729.37 871.728 726.75C871.658 724.15 870.708 721.52 869.398 719.09C868.078 716.65 866.378 714.37 864.478 712.29C862.578 710.21 860.458 708.29 858.168 706.72C856.968 705.87 855.668 705.18 854.438 704.73L854.398 704.76Z" fill="white"/>
<path d="M837.438 701.44C837.438 701.44 837.498 701.49 837.518 701.6C837.598 701.93 837.628 702.43 837.438 702.87C837.238 703.3 836.808 703.66 835.808 703.59C835.768 703.59 835.608 703.55 835.548 703.52C834.288 702.36 833.228 700.98 832.448 699.46C830.898 696.5 830.468 692.99 831.198 689.73C831.558 688.1 832.198 686.53 833.078 685.12C833.978 683.72 835.108 682.47 836.428 681.44C839.048 679.36 842.418 678.28 845.748 678.38C849.078 678.45 852.388 679.74 854.878 681.96C856.128 683.05 857.208 684.36 858.018 685.82C858.818 687.28 859.368 688.88 859.638 690.53C860.178 693.81 859.568 697.3 857.848 700.17C856.998 701.6 855.918 702.9 854.648 703.98C853.368 705.05 851.888 705.89 850.328 706.46L849.808 706.65C849.748 706.67 849.688 706.68 849.628 706.7L849.268 706.8L848.538 706.99C848.048 707.09 847.548 707.16 847.048 707.25C847.048 707.25 846.758 707.25 846.258 707.25C845.768 707.27 845.078 707.19 844.298 707.11C842.738 706.88 840.858 706.21 839.538 705.33C838.398 704.63 837.788 704 837.488 703.6C837.178 703.21 837.178 703.02 837.368 702.99C837.758 702.92 838.868 703.52 840.278 703.97C840.148 703.87 841.788 704.56 843.558 704.66C844.428 704.72 845.318 704.7 845.968 704.61C846.288 704.56 846.568 704.53 846.758 704.5C846.948 704.46 847.048 704.43 847.048 704.43C847.438 704.36 847.838 704.32 848.228 704.2L848.808 704.05L848.948 704.01L849.338 703.86C849.648 703.74 849.968 703.65 850.258 703.49C852.688 702.42 854.638 700.41 855.848 698.06C857.018 695.68 857.348 692.91 856.778 690.32C856.198 687.73 854.708 685.38 852.648 683.71C850.558 682.08 847.938 681.13 845.278 681.17C842.628 681.2 839.988 682.12 837.948 683.81C835.918 685.5 834.418 687.87 833.918 690.48C833.388 693.07 833.718 695.86 834.958 698.2C835.588 699.43 836.438 700.54 837.458 701.47L837.438 701.44Z" fill="white"/>
</g>
<g filter="url(#filter1_d_94_207)">
<path d="M912.108 757.736C1062.23 607.618 1062.38 364.385 912.461 214.461C762.537 64.5372 519.305 64.6954 369.186 214.814C219.067 364.933 218.909 608.166 368.833 758.09C518.756 908.013 761.989 907.855 912.108 757.736Z" stroke="white" stroke-width="0.75" stroke-miterlimit="10"/>
</g>
<g filter="url(#filter2_d_94_207)">
<path d="M639.94 80.3199C640.96 350 640.97 652.52 639.94 922.2C638.91 652.52 638.92 350 639.94 80.3199Z" fill="white"/>
<path d="M850.41 136.71C716.45 370.77 565.2 632.77 429.47 865.8C563.42 631.73 714.69 369.75 850.41 136.71Z" fill="white"/>
<path d="M1004.48 711.73C770.42 577.77 508.42 426.52 275.39 290.79C509.46 424.74 771.44 576.01 1004.48 711.73Z" fill="white"/>
<path d="M1004.48 290.79C771.44 426.52 509.45 577.78 275.39 711.73C508.43 576 770.42 424.75 1004.48 290.79Z" fill="white"/>
<path d="M850.41 865.81C714.69 632.77 563.42 370.78 429.47 136.72C565.2 369.76 716.45 631.75 850.41 865.81Z" fill="white"/>
<path d="M1060.88 501.26C791.2 502.28 488.68 502.29 219 501.26C488.68 500.23 791.2 500.24 1060.88 501.26Z" fill="white"/>
</g>
<g filter="url(#filter3_d_94_207)">
<path d="M1002.89 300.06L1006.61 313.68L1018.44 315.62L1006.61 319.34L1002.89 331.18L999.17 319.34L987.33 315.62L999.17 313.68L1002.89 300.06Z" fill="white"/>
<path d="M1056.28 485.14L1060 498.76L1071.83 500.7L1060 504.42L1056.28 516.26L1052.55 504.42L1040.72 500.7L1052.55 498.76L1056.28 485.14Z" fill="white"/>
<path d="M1006.45 672L1010.17 685.62L1022 687.56L1010.17 691.28L1006.45 703.12L1002.72 691.28L990.89 687.56L1002.72 685.62L1006.45 672Z" fill="white"/>
<path d="M869.41 809.04L873.13 822.65L884.97 824.59L873.13 828.32L869.41 840.15L865.69 828.32L853.86 824.59L865.69 822.65L869.41 809.04Z" fill="white"/>
<path d="M682.55 862.43L686.27 876.04L698.11 877.98L686.27 881.7L682.55 893.54L678.83 881.7L666.99 877.98L678.83 876.04L682.55 862.43Z" fill="white"/>
<path d="M497.47 809.04L501.19 822.65L513.03 824.59L501.19 828.32L497.47 840.15L493.75 828.32L481.91 824.59L493.75 822.65L497.47 809.04Z" fill="white"/>
<path d="M358.66 672L362.38 685.62L374.22 687.56L362.38 691.28L358.66 703.12L354.94 691.28L343.1 687.56L354.94 685.62L358.66 672Z" fill="white"/>
<path d="M307.05 486.92L310.77 500.54L322.61 502.48L310.77 506.2L307.05 518.04L303.33 506.2L291.49 502.48L303.33 500.54L307.05 486.92Z" fill="white"/>
<path d="M358.66 300.06L362.38 313.68L374.22 315.62L362.38 319.34L358.66 331.18L354.94 319.34L343.1 315.62L354.94 313.68L358.66 300.06Z" fill="white"/>
<path d="M495.69 163.03L499.41 176.65L511.25 178.59L499.41 182.31L495.69 194.15L491.97 182.31L480.13 178.59L491.97 176.65L495.69 163.03Z" fill="white"/>
<path d="M682.55 109.64L686.27 123.26L698.11 125.2L686.27 128.92L682.55 140.76L678.83 128.92L666.99 125.2L678.83 123.26L682.55 109.64Z" fill="white"/>
<path d="M869.41 161.25L873.13 174.87L884.97 176.81L873.13 180.53L869.41 192.37L865.69 180.53L853.86 176.81L865.69 174.87L869.41 161.25Z" fill="white"/>
</g>
<g filter="url(#filter4_d_94_207)">
<path d="M1021.41 90.87L1024.18 106.86L1035.85 106.12L1026.95 111.65L1031 117.19L1024.18 116.45L1021.41 132.43L1018.64 116.45L1011.82 117.19L1015.87 111.65L1006.96 106.12L1018.64 106.86L1021.41 90.87Z" fill="white"/>
</g>
<g filter="url(#filter5_d_94_207)">
<path d="M1201.23 297.08L1204 313.07L1215.67 312.33L1206.76 317.86L1210.82 323.4L1204 322.66L1201.23 338.65L1198.46 322.66L1191.64 323.4L1195.69 317.86L1186.78 312.33L1198.46 313.07L1201.23 297.08Z" fill="white"/>
</g>
<g filter="url(#filter6_d_94_207)">
<path d="M1013.21 719.99L1015.98 735.97L1027.66 735.23L1018.75 740.77L1022.8 746.31L1015.98 745.57L1013.21 761.55L1010.44 745.57L1003.62 746.31L1007.68 740.77L998.77 735.23L1010.44 735.97L1013.21 719.99Z" fill="white"/>
</g>
<g filter="url(#filter7_d_94_207)">
<path d="M1056.08 813.35L1058.17 825.4L1066.97 824.84L1060.26 829.02L1063.31 833.19L1058.17 832.63L1056.08 844.68L1053.99 832.63L1048.85 833.19L1051.91 829.02L1045.19 824.84L1053.99 825.4L1056.08 813.35Z" fill="white"/>
</g>
<g filter="url(#filter8_d_94_207)">
<path d="M295.2 107.72L297.97 123.71L309.65 122.96L300.74 128.5L304.79 134.04L297.97 133.3L295.2 149.28L292.43 133.3L285.61 134.04L289.67 128.5L280.76 122.96L292.43 123.71L295.2 107.72Z" fill="white"/>
</g>
<g filter="url(#filter9_d_94_207)">
<path d="M165.01 447.97L167.77 463.96L179.45 463.22L170.54 468.75L174.6 474.29L167.77 473.55L165.01 489.53L162.24 473.55L155.41 474.29L159.47 468.75L150.56 463.22L162.24 463.96L165.01 447.97Z" fill="white"/>
</g>
<g filter="url(#filter10_d_94_207)">
<path d="M359.17 171.92L360.55 179.92L366.39 179.55L361.93 182.32L363.96 185.08L360.55 184.71L359.17 192.71L357.78 184.71L354.37 185.08L356.4 182.32L351.94 179.55L357.78 179.92L359.17 171.92Z" fill="white"/>
</g>
<g filter="url(#filter11_d_94_207)">
<path d="M303.3 806.1L306.07 822.09L317.74 821.35L308.84 826.89L312.89 832.42L306.07 831.68L303.3 847.67L300.53 831.68L293.71 832.42L297.76 826.89L288.85 821.35L300.53 822.09L303.3 806.1Z" fill="white"/>
</g>
<path d="M372.92 784.35L374.67 794.47L382.06 794.01L376.42 797.51L378.99 801.02L374.67 800.55L372.92 810.67L371.16 800.55L366.84 801.02L369.41 797.51L363.77 794.01L371.16 794.47L372.92 784.35Z" fill="white"/>
<g filter="url(#filter12_d_94_207)">
<path d="M1036.97 168.06L1038.72 178.18L1046.11 177.71L1040.47 181.22L1043.04 184.72L1038.72 184.25L1036.97 194.38L1035.21 184.25L1030.89 184.72L1033.46 181.22L1027.82 177.71L1035.21 178.18L1036.97 168.06Z" fill="white"/>
</g>
<g filter="url(#filter13_d_94_207)">
<path d="M1236.82 582.04L1238.57 592.16L1245.97 591.69L1240.33 595.2L1242.89 598.71L1238.57 598.24L1236.82 608.36L1235.07 598.24L1230.75 598.71L1233.31 595.2L1227.67 591.69L1235.07 592.16L1236.82 582.04Z" fill="white"/>
</g>
<g filter="url(#filter14_d_94_207)">
<path d="M174.15 623.65L175.91 633.78L183.3 633.31L177.66 636.81L180.23 640.32L175.91 639.85L174.15 649.97L172.4 639.85L168.08 640.32L170.65 636.81L165.01 633.31L172.4 633.78L174.15 623.65Z" fill="white"/>
</g>
<g filter="url(#filter15_d_94_207)">
<path d="M129.91 252.6L131.66 262.73L139.06 262.26L133.42 265.76L135.98 269.27L131.66 268.8L129.91 278.92L128.16 268.8L123.84 269.27L126.4 265.76L120.76 262.26L128.16 262.73L129.91 252.6Z" fill="white"/>
</g>
<g filter="url(#filter16_d_94_207)">
<path d="M46.48 572.47L48.87 586.27L58.95 585.63L51.26 590.41L54.76 595.2L48.87 594.55L46.48 608.36L44.09 594.55L38.2 595.2L41.7 590.41L34 585.63L44.09 586.27L46.48 572.47Z" fill="white"/>
</g>
<g filter="url(#filter17_d_94_207)">
<path d="M1186.22 696.19L1188.61 709.99L1198.69 709.35L1191 714.13L1194.5 718.91L1188.61 718.27L1186.22 732.07L1183.83 718.27L1177.94 718.91L1181.44 714.13L1173.75 709.35L1183.83 709.99L1186.22 696.19Z" fill="white"/>
</g>
<g filter="url(#filter18_d_94_207)">
<path d="M826.06 476.67C826.06 564.63 754.75 635.94 666.79 635.94C578.83 635.94 507.52 564.63 507.52 476.67C507.52 388.71 578.83 317.4 666.79 317.4C666.79 317.4 653.74 313.84 640.42 313.84C536.91 313.84 453 397.75 453 501.26C453 604.77 536.91 688.68 640.42 688.68C743.93 688.68 827.84 604.77 827.84 501.26C827.84 492.45 826.06 476.22 826.06 476.67Z" fill="white"/>
</g>
</g>
<defs>
<filter id="filter0_d_94_207" x="294" y="171.218" width="691.204" height="672.896" filterUnits="userSpaceOnUse" color-interpolation-filters="sRGB">
<feFlood flood-opacity="0" result="BackgroundImageFix"/>
<feColorMatrix in="SourceAlpha" type="matrix" values="0 0 0 0 0 0 0 0 0 0 0 0 0 0 0 0 0 0 127 0" result="hardAlpha"/>
<feOffset/>
<feGaussianBlur stdDeviation="8"/>
<feColorMatrix type="matrix" values="0 0 0 0 1 0 0 0 0 0.352941 0 0 0 0 0.980392 0 0 0 0.95 0"/>
<feBlend mode="normal" in2="BackgroundImageFix" result="effect1_dropShadow_94_207"/>
<feBlend mode="normal" in="SourceGraphic" in2="effect1_dropShadow_94_207" result="shape"/>
</filter>
<filter id="filter1_d_94_207" x="240.118" y="85.7466" width="801.058" height="801.057" filterUnits="userSpaceOnUse" color-interpolation-filters="sRGB">
<feFlood flood-opacity="0" result="BackgroundImageFix"/>
<feColorMatrix in="SourceAlpha" type="matrix" values="0 0 0 0 0 0 0 0 0 0 0 0 0 0 0 0 0 0 127 0" result="hardAlpha"/>
<feOffset/>
<feGaussianBlur stdDeviation="8"/>
<feColorMatrix type="matrix" values="0 0 0 0 1 0 0 0 0 0.352941 0 0 0 0 0.980392 0 0 0 0.95 0"/>
<feBlend mode="normal" in2="BackgroundImageFix" result="effect1_dropShadow_94_207"/>
<feBlend mode="normal" in="SourceGraphic" in2="effect1_dropShadow_94_207" result="shape"/>
</filter>
<filter id="filter2_d_94_207" x="203" y="64.3199" width="873.88" height="873.88" filterUnits="userSpaceOnUse" color-interpolation-filters="sRGB">
<feFlood flood-opacity="0" result="BackgroundImageFix"/>
<feColorMatrix in="SourceAlpha" type="matrix" values="0 0 0 0 0 0 0 0 0 0 0 0 0 0 0 0 0 0 127 0" result="hardAlpha"/>
<feOffset/>
<feGaussianBlur stdDeviation="8"/>
<feColorMatrix type="matrix" values="0 0 0 0 1 0 0 0 0 0.352941 0 0 0 0 0.980392 0 0 0 0.95 0"/>
<feBlend mode="normal" in2="BackgroundImageFix" result="effect1_dropShadow_94_207"/>
<feBlend mode="normal" in="SourceGraphic" in2="effect1_dropShadow_94_207" result="shape"/>
</filter>
<filter id="filter3_d_94_207" x="275.49" y="93.64" width="812.34" height="815.9" filterUnits="userSpaceOnUse" color-interpolation-filters="sRGB">
<feFlood flood-opacity="0" result="BackgroundImageFix"/>
<feColorMatrix in="SourceAlpha" type="matrix" values="0 0 0 0 0 0 0 0 0 0 0 0 0 0 0 0 0 0 127 0" result="hardAlpha"/>
<feOffset/>
<feGaussianBlur stdDeviation="8"/>
<feColorMatrix type="matrix" values="0 0 0 0 1 0 0 0 0 0.352941 0 0 0 0 0.980392 0 0 0 0.95 0"/>
<feBlend mode="normal" in2="BackgroundImageFix" result="effect1_dropShadow_94_207"/>
<feBlend mode="normal" in="SourceGraphic" in2="effect1_dropShadow_94_207" result="shape"/>
</filter>
<filter id="filter4_d_94_207" x="990.96" y="74.87" width="60.89" height="73.5599" filterUnits="userSpaceOnUse" color-interpolation-filters="sRGB">
<feFlood flood-opacity="0" result="BackgroundImageFix"/>
<feColorMatrix in="SourceAlpha" type="matrix" values="0 0 0 0 0 0 0 0 0 0 0 0 0 0 0 0 0 0 127 0" result="hardAlpha"/>
<feOffset/>
<feGaussianBlur stdDeviation="8"/>
<feColorMatrix type="matrix" values="0 0 0 0 1 0 0 0 0 0.352941 0 0 0 0 0.980392 0 0 0 0.95 0"/>
<feBlend mode="normal" in2="BackgroundImageFix" result="effect1_dropShadow_94_207"/>
<feBlend mode="normal" in="SourceGraphic" in2="effect1_dropShadow_94_207" result="shape"/>
</filter>
<filter id="filter5_d_94_207" x="1170.78" y="281.08" width="60.89" height="73.5699" filterUnits="userSpaceOnUse" color-interpolation-filters="sRGB">
<feFlood flood-opacity="0" result="BackgroundImageFix"/>
<feColorMatrix in="SourceAlpha" type="matrix" values="0 0 0 0 0 0 0 0 0 0 0 0 0 0 0 0 0 0 127 0" result="hardAlpha"/>
<feOffset/>
<feGaussianBlur stdDeviation="8"/>
<feColorMatrix type="matrix" values="0 0 0 0 1 0 0 0 0 0.352941 0 0 0 0 0.980392 0 0 0 0.95 0"/>
<feBlend mode="normal" in2="BackgroundImageFix" result="effect1_dropShadow_94_207"/>
<feBlend mode="normal" in="SourceGraphic" in2="effect1_dropShadow_94_207" result="shape"/>
</filter>
<filter id="filter6_d_94_207" x="982.77" y="703.99" width="60.89" height="73.5601" filterUnits="userSpaceOnUse" color-interpolation-filters="sRGB">
<feFlood flood-opacity="0" result="BackgroundImageFix"/>
<feColorMatrix in="SourceAlpha" type="matrix" values="0 0 0 0 0 0 0 0 0 0 0 0 0 0 0 0 0 0 127 0" result="hardAlpha"/>
<feOffset/>
<feGaussianBlur stdDeviation="8"/>
<feColorMatrix type="matrix" values="0 0 0 0 1 0 0 0 0 0.352941 0 0 0 0 0.980392 0 0 0 0.95 0"/>
<feBlend mode="normal" in2="BackgroundImageFix" result="effect1_dropShadow_94_207"/>
<feBlend mode="normal" in="SourceGraphic" in2="effect1_dropShadow_94_207" result="shape"/>
</filter>
<filter id="filter7_d_94_207" x="1029.19" y="797.35" width="53.78" height="63.33" filterUnits="userSpaceOnUse" color-interpolation-filters="sRGB">
<feFlood flood-opacity="0" result="BackgroundImageFix"/>
<feColorMatrix in="SourceAlpha" type="matrix" values="0 0 0 0 0 0 0 0 0 0 0 0 0 0 0 0 0 0 127 0" result="hardAlpha"/>
<feOffset/>
<feGaussianBlur stdDeviation="8"/>
<feColorMatrix type="matrix" values="0 0 0 0 1 0 0 0 0 0.352941 0 0 0 0 0.980392 0 0 0 0.95 0"/>
<feBlend mode="normal" in2="BackgroundImageFix" result="effect1_dropShadow_94_207"/>
<feBlend mode="normal" in="SourceGraphic" in2="effect1_dropShadow_94_207" result="shape"/>
</filter>
<filter id="filter8_d_94_207" x="264.76" y="91.72" width="60.89" height="73.5601" filterUnits="userSpaceOnUse" color-interpolation-filters="sRGB">
<feFlood flood-opacity="0" result="BackgroundImageFix"/>
<feColorMatrix in="SourceAlpha" type="matrix" values="0 0 0 0 0 0 0 0 0 0 0 0 0 0 0 0 0 0 127 0" result="hardAlpha"/>
<feOffset/>
<feGaussianBlur stdDeviation="8"/>
<feColorMatrix type="matrix" values="0 0 0 0 1 0 0 0 0 0.352941 0 0 0 0 0.980392 0 0 0 0.95 0"/>
<feBlend mode="normal" in2="BackgroundImageFix" result="effect1_dropShadow_94_207"/>
<feBlend mode="normal" in="SourceGraphic" in2="effect1_dropShadow_94_207" result="shape"/>
</filter>
<filter id="filter9_d_94_207" x="134.56" y="431.97" width="60.89" height="73.5601" filterUnits="userSpaceOnUse" color-interpolation-filters="sRGB">
<feFlood flood-opacity="0" result="BackgroundImageFix"/>
<feColorMatrix in="SourceAlpha" type="matrix" values="0 0 0 0 0 0 0 0 0 0 0 0 0 0 0 0 0 0 127 0" result="hardAlpha"/>
<feOffset/>
<feGaussianBlur stdDeviation="8"/>
<feColorMatrix type="matrix" values="0 0 0 0 1 0 0 0 0 0.352941 0 0 0 0 0.980392 0 0 0 0.95 0"/>
<feBlend mode="normal" in2="BackgroundImageFix" result="effect1_dropShadow_94_207"/>
<feBlend mode="normal" in="SourceGraphic" in2="effect1_dropShadow_94_207" result="shape"/>
</filter>
<filter id="filter10_d_94_207" x="335.94" y="155.92" width="46.45" height="52.79" filterUnits="userSpaceOnUse" color-interpolation-filters="sRGB">
<feFlood flood-opacity="0" result="BackgroundImageFix"/>
<feColorMatrix in="SourceAlpha" type="matrix" values="0 0 0 0 0 0 0 0 0 0 0 0 0 0 0 0 0 0 127 0" result="hardAlpha"/>
<feOffset/>
<feGaussianBlur stdDeviation="8"/>
<feColorMatrix type="matrix" values="0 0 0 0 1 0 0 0 0 0.352941 0 0 0 0 0.980392 0 0 0 0.95 0"/>
<feBlend mode="normal" in2="BackgroundImageFix" result="effect1_dropShadow_94_207"/>
<feBlend mode="normal" in="SourceGraphic" in2="effect1_dropShadow_94_207" result="shape"/>
</filter>
<filter id="filter11_d_94_207" x="272.85" y="790.1" width="60.89" height="73.5699" filterUnits="userSpaceOnUse" color-interpolation-filters="sRGB">
<feFlood flood-opacity="0" result="BackgroundImageFix"/>
<feColorMatrix in="SourceAlpha" type="matrix" values="0 0 0 0 0 0 0 0 0 0 0 0 0 0 0 0 0 0 127 0" result="hardAlpha"/>
<feOffset/>
<feGaussianBlur stdDeviation="8"/>
<feColorMatrix type="matrix" values="0 0 0 0 1 0 0 0 0 0.352941 0 0 0 0 0.980392 0 0 0 0.95 0"/>
<feBlend mode="normal" in2="BackgroundImageFix" result="effect1_dropShadow_94_207"/>
<feBlend mode="normal" in="SourceGraphic" in2="effect1_dropShadow_94_207" result="shape"/>
</filter>
<filter id="filter12_d_94_207" x="1011.82" y="152.06" width="50.29" height="58.3199" filterUnits="userSpaceOnUse" color-interpolation-filters="sRGB">
<feFlood flood-opacity="0" result="BackgroundImageFix"/>
<feColorMatrix in="SourceAlpha" type="matrix" values="0 0 0 0 0 0 0 0 0 0 0 0 0 0 0 0 0 0 127 0" result="hardAlpha"/>
<feOffset/>
<feGaussianBlur stdDeviation="8"/>
<feColorMatrix type="matrix" values="0 0 0 0 1 0 0 0 0 0.352941 0 0 0 0 0.980392 0 0 0 0.95 0"/>
<feBlend mode="normal" in2="BackgroundImageFix" result="effect1_dropShadow_94_207"/>
<feBlend mode="normal" in="SourceGraphic" in2="effect1_dropShadow_94_207" result="shape"/>
</filter>
<filter id="filter13_d_94_207" x="1211.67" y="566.04" width="50.3" height="58.3201" filterUnits="userSpaceOnUse" color-interpolation-filters="sRGB">
<feFlood flood-opacity="0" result="BackgroundImageFix"/>
<feColorMatrix in="SourceAlpha" type="matrix" values="0 0 0 0 0 0 0 0 0 0 0 0 0 0 0 0 0 0 127 0" result="hardAlpha"/>
<feOffset/>
<feGaussianBlur stdDeviation="8"/>
<feColorMatrix type="matrix" values="0 0 0 0 1 0 0 0 0 0.352941 0 0 0 0 0.980392 0 0 0 0.95 0"/>
<feBlend mode="normal" in2="BackgroundImageFix" result="effect1_dropShadow_94_207"/>
<feBlend mode="normal" in="SourceGraphic" in2="effect1_dropShadow_94_207" result="shape"/>
</filter>
<filter id="filter14_d_94_207" x="149.01" y="607.65" width="50.29" height="58.3199" filterUnits="userSpaceOnUse" color-interpolation-filters="sRGB">
<feFlood flood-opacity="0" result="BackgroundImageFix"/>
<feColorMatrix in="SourceAlpha" type="matrix" values="0 0 0 0 0 0 0 0 0 0 0 0 0 0 0 0 0 0 127 0" result="hardAlpha"/>
<feOffset/>
<feGaussianBlur stdDeviation="8"/>
<feColorMatrix type="matrix" values="0 0 0 0 1 0 0 0 0 0.352941 0 0 0 0 0.980392 0 0 0 0.95 0"/>
<feBlend mode="normal" in2="BackgroundImageFix" result="effect1_dropShadow_94_207"/>
<feBlend mode="normal" in="SourceGraphic" in2="effect1_dropShadow_94_207" result="shape"/>
</filter>
<filter id="filter15_d_94_207" x="104.76" y="236.6" width="50.3" height="58.3199" filterUnits="userSpaceOnUse" color-interpolation-filters="sRGB">
<feFlood flood-opacity="0" result="BackgroundImageFix"/>
<feColorMatrix in="SourceAlpha" type="matrix" values="0 0 0 0 0 0 0 0 0 0 0 0 0 0 0 0 0 0 127 0" result="hardAlpha"/>
<feOffset/>
<feGaussianBlur stdDeviation="8"/>
<feColorMatrix type="matrix" values="0 0 0 0 1 0 0 0 0 0.352941 0 0 0 0 0.980392 0 0 0 0.95 0"/>
<feBlend mode="normal" in2="BackgroundImageFix" result="effect1_dropShadow_94_207"/>
<feBlend mode="normal" in="SourceGraphic" in2="effect1_dropShadow_94_207" result="shape"/>
</filter>
<filter id="filter16_d_94_207" x="12.18" y="550.65" width="68.59" height="79.53" filterUnits="userSpaceOnUse" color-interpolation-filters="sRGB">
<feFlood flood-opacity="0" result="BackgroundImageFix"/>
<feColorMatrix in="SourceAlpha" type="matrix" values="0 0 0 0 0 0 0 0 0 0 0 0 0 0 0 0 0 0 127 0" result="hardAlpha"/>
<feOffset/>
<feGaussianBlur stdDeviation="10.91"/>
<feColorMatrix type="matrix" values="0 0 0 0 1 0 0 0 0 0.352941 0 0 0 0 0.980392 0 0 0 0.95 0"/>
<feBlend mode="normal" in2="BackgroundImageFix" result="effect1_dropShadow_94_207"/>
<feBlend mode="normal" in="SourceGraphic" in2="effect1_dropShadow_94_207" result="shape"/>
</filter>
<filter id="filter17_d_94_207" x="1151.93" y="674.37" width="68.5801" height="79.52" filterUnits="userSpaceOnUse" color-interpolation-filters="sRGB">
<feFlood flood-opacity="0" result="BackgroundImageFix"/>
<feColorMatrix in="SourceAlpha" type="matrix" values="0 0 0 0 0 0 0 0 0 0 0 0 0 0 0 0 0 0 127 0" result="hardAlpha"/>
<feOffset/>
<feGaussianBlur stdDeviation="10.91"/>
<feColorMatrix type="matrix" values="0 0 0 0 1 0 0 0 0 0.352941 0 0 0 0 0.980392 0 0 0 0.95 0"/>
<feBlend mode="normal" in2="BackgroundImageFix" result="effect1_dropShadow_94_207"/>
<feBlend mode="normal" in="SourceGraphic" in2="effect1_dropShadow_94_207" result="shape"/>
</filter>
<filter id="filter18_d_94_207" x="437" y="297.84" width="406.84" height="406.84" filterUnits="userSpaceOnUse" color-interpolation-filters="sRGB">
<feFlood flood-opacity="0" result="BackgroundImageFix"/>
<feColorMatrix in="SourceAlpha" type="matrix" values="0 0 0 0 0 0 0 0 0 0 0 0 0 0 0 0 0 0 127 0" result="hardAlpha"/>
<feOffset/>
<feGaussianBlur stdDeviation="8"/>
<feColorMatrix type="matrix" values="0 0 0 0 1 0 0 0 0 0.952941 0 0 0 0 0.772549 0 0 0 0.95 0"/>
<feBlend mode="normal" in2="BackgroundImageFix" result="effect1_dropShadow_94_207"/>
<feBlend mode="normal" in="SourceGraphic" in2="effect1_dropShadow_94_207" result="shape"/>
</filter>
<clipPath id="clip0_94_207">
<rect width="1280" height="1024" fill="white"/>
</clipPath>
</defs>
</svg>
