<svg width="1280" height="1024" viewBox="0 0 1280 1024" fill="none" xmlns="http://www.w3.org/2000/svg">
<g clip-path="url(#clip0_94_207)">
<g filter="url(#filter0_d_94_207)">
<path d="M341.258 557.272C341.328 557.272 341.348 557.282 341.428 557.362C341.998 557.832 342.748 558.952 341.148 559.962C341.118 559.982 340.978 560.042 340.918 560.052C339.418 559.872 337.938 559.702 336.468 559.612L335.718 559.572C335.218 559.552 334.728 559.542 334.228 559.542C333.238 559.542 332.268 559.602 331.308 559.722C330.348 559.842 329.408 560.032 328.498 560.302C327.608 560.572 326.748 560.942 325.938 561.392C322.688 563.162 320.228 566.582 320.778 570.052C321.008 571.772 321.898 573.432 323.118 574.802C324.348 576.192 325.898 577.242 327.648 578.022C331.158 579.572 335.238 580.052 339.298 580.552C355.548 582.492 372.128 581.602 388.098 578.052C389.098 577.842 390.098 577.602 391.088 577.352C392.078 577.102 393.078 576.882 394.058 576.592L395.538 576.182L396.928 575.802L397.668 575.592L398.038 575.492L398.228 575.442C398.268 575.502 398.288 575.602 398.318 575.682L398.968 577.732L399.288 578.762C399.358 579.082 399.658 579.552 399.258 579.532L396.658 580.462C392.798 581.822 388.998 583.352 385.278 585.062C377.818 588.432 370.668 592.462 363.878 597.032L362.188 598.202C356.258 602.312 350.658 606.902 345.408 611.842C342.828 614.292 340.458 616.932 339.208 620.012C337.978 623.022 337.938 626.672 339.688 629.182C340.538 630.442 341.838 631.362 343.308 631.932C344.798 632.482 346.458 632.682 348.088 632.562C348.908 632.512 349.718 632.352 350.508 632.142C350.898 632.032 351.288 631.912 351.688 631.752C351.788 631.712 351.888 631.682 351.978 631.642L352.188 631.552L352.238 631.532L352.668 631.352C353.238 631.092 353.798 630.812 354.338 630.502C354.338 630.502 355.248 630.092 356.448 629.392C357.658 628.702 359.148 627.722 360.398 626.912C364.548 623.992 363.498 625.792 361.338 628.142C361.478 628.052 360.158 629.422 358.638 630.702C357.148 632.012 355.368 633.122 355.368 633.122C354.768 633.442 354.158 633.752 353.528 634.022L353.288 634.122L353.228 634.142C353.018 634.232 352.798 634.322 352.578 634.392C352.138 634.562 351.688 634.702 351.228 634.832C349.378 635.332 347.458 635.512 345.538 635.302C343.628 635.102 341.708 634.502 340.038 633.382C338.358 632.292 337.018 630.602 336.288 628.742C334.848 624.952 335.528 620.842 337.278 617.502C339.028 614.152 341.638 611.532 344.188 609.132C349.338 604.362 354.788 599.902 360.558 595.912L362.288 594.722C369.208 590.062 376.498 585.952 384.098 582.512C387.888 580.772 391.758 579.222 395.698 577.832L396.008 577.722L396.348 578.782L396.368 578.852L396.278 578.882L394.768 579.302C393.768 579.592 392.748 579.822 391.738 580.082C390.728 580.342 389.718 580.582 388.698 580.792C372.418 584.422 355.528 585.322 338.958 583.342C336.888 583.082 334.828 582.852 332.728 582.442C330.638 582.042 328.518 581.492 326.488 580.592C324.468 579.702 322.518 578.392 321.008 576.672C319.498 574.972 318.318 572.842 317.988 570.442C317.828 569.252 317.878 568.022 318.158 566.852C318.438 565.682 318.928 564.582 319.558 563.592C320.818 561.612 322.578 560.062 324.558 558.962C325.548 558.412 326.598 557.952 327.688 557.622C328.758 557.302 329.848 557.082 330.938 556.942C332.028 556.802 333.118 556.742 334.198 556.732C334.738 556.732 335.278 556.732 335.808 556.762L336.608 556.802C338.178 556.892 339.718 557.072 341.238 557.252L341.258 557.272Z" fill="white"/>
<path d="M431.098 692.412C431.098 692.412 431.028 692.472 430.928 692.472C430.258 692.532 428.818 692.452 429.148 690.552C429.148 690.512 429.208 690.372 429.248 690.312L430.178 689.502L431.188 688.782C431.848 688.272 432.568 687.882 433.288 687.472C438.238 684.752 444.228 684.062 449.658 685.562C455.108 687.012 459.908 690.672 462.808 695.502C465.738 700.322 466.678 706.292 465.418 711.782C464.198 717.282 460.758 722.262 456.028 725.332C451.328 728.452 445.408 729.642 439.878 728.612C434.328 727.632 429.238 724.372 425.948 719.802C422.618 715.252 421.188 709.382 421.978 703.812L422.208 702.362L422.388 701.652L422.758 700.242C422.758 700.242 422.878 699.982 423.068 699.542C423.288 699.112 423.488 698.482 423.908 697.832C424.298 697.172 424.708 696.422 425.258 695.752C425.518 695.412 425.788 695.072 426.038 694.742C426.328 694.442 426.618 694.142 426.898 693.862C427.128 693.632 427.338 693.412 427.528 693.222C427.738 693.042 427.928 692.892 428.108 692.762C428.458 692.492 428.738 692.302 428.948 692.182C429.378 691.932 429.568 691.952 429.568 692.142C429.568 692.332 429.398 692.702 429.118 693.182C428.978 693.422 428.808 693.682 428.618 693.952C428.448 694.242 428.268 694.562 428.068 694.882C428.128 694.832 427.908 695.182 427.558 695.732C427.278 696.332 426.798 697.102 426.468 697.942C426.298 698.362 426.128 698.782 425.968 699.182C425.828 699.582 425.728 699.972 425.628 700.302C425.528 700.632 425.448 700.902 425.398 701.092C425.358 701.292 425.338 701.402 425.338 701.402L425.018 702.612C424.958 702.812 424.918 703.022 424.888 703.222L424.748 704.102C424.628 704.692 424.618 705.302 424.578 705.902C424.318 710.742 425.968 715.632 429.118 719.322C432.228 723.042 436.768 725.512 441.588 726.042C446.398 726.622 451.408 725.302 455.288 722.402C459.188 719.532 461.958 715.182 462.828 710.412C463.738 705.652 462.768 700.572 460.158 696.492C457.538 692.412 453.368 689.362 448.678 688.172C443.998 686.952 438.858 687.582 434.618 689.902C433.988 690.262 433.358 690.602 432.788 691.042L431.908 691.672L431.098 692.382V692.412Z" fill="white"/>
<path d="M437.108 765.252C437.108 765.252 437.168 765.292 437.198 765.392C437.298 765.702 437.378 766.192 437.238 766.642C437.088 767.082 436.718 767.512 435.688 767.522C435.648 767.522 435.488 767.502 435.418 767.472C433.988 766.402 432.888 764.972 432.108 763.442C431.088 761.472 430.578 759.342 430.368 757.232C430.148 755.122 430.248 753.002 430.558 750.932C431.198 746.852 432.418 743.042 433.008 739.252C433.288 737.362 433.458 735.472 433.268 733.642C433.108 731.822 432.628 730.022 431.888 728.332C430.408 724.942 427.868 722.002 424.748 720.032C421.628 718.012 417.948 717.192 414.148 717.322C410.338 717.422 406.508 718.262 402.568 719.002C398.628 719.722 394.488 720.332 390.258 719.732L389.388 719.582C389.268 719.562 389.148 719.542 389.028 719.512L388.308 719.352C387.838 719.222 387.358 719.102 386.898 718.942C386.898 718.942 385.808 718.552 384.488 717.732C383.158 716.932 381.648 715.652 380.738 714.332C379.948 713.242 379.608 712.432 379.508 711.932C379.398 711.442 379.468 711.272 379.648 711.322C380.028 711.422 380.788 712.412 381.928 713.342C381.838 713.212 383.118 714.422 384.728 715.192C385.528 715.582 386.358 715.922 387.008 716.102C387.648 716.302 388.098 716.402 388.098 716.402C388.498 716.512 388.888 716.632 389.298 716.722C389.498 716.762 389.698 716.822 389.908 716.852L390.608 716.972C391.058 717.032 391.508 717.092 391.968 717.122C395.648 717.422 399.428 716.762 403.248 716.042C407.068 715.312 411.018 714.492 415.148 714.532C417.208 714.572 419.288 714.792 421.328 715.412C423.348 716.022 425.258 716.962 426.978 718.162C430.418 720.552 433.138 723.932 434.718 727.822C435.508 729.762 435.998 731.842 436.128 733.952C436.248 736.042 436.068 738.122 435.728 740.112C435.058 744.102 433.868 747.842 433.318 751.572C433.068 753.402 432.978 755.262 433.188 757.072C433.378 758.882 433.828 760.652 434.628 762.192C435.258 763.412 436.088 764.492 437.148 765.282L437.108 765.252Z" fill="white"/>
<path d="M543.668 755.352C543.608 755.322 543.588 755.312 543.538 755.202C543.168 754.562 542.888 753.262 544.758 752.882C544.788 752.882 544.938 752.862 545.008 752.882C546.368 753.572 547.688 754.352 549.078 754.982C557.858 759.302 567.248 762.352 576.848 764.262C581.658 765.172 586.518 765.792 591.408 766.092C593.848 766.262 596.298 766.292 598.748 766.322L601.688 766.252C601.688 766.252 601.948 766.262 602.398 766.282C602.838 766.312 603.458 766.332 604.168 766.342C605.588 766.392 607.378 766.452 608.898 766.502C613.968 766.572 612.078 767.392 608.948 768.052C609.118 768.072 607.248 768.402 605.318 768.622C603.388 768.902 601.408 769.042 601.408 769.042L600.048 769.072L599.368 769.092H598.808H597.888L594.188 769.032L590.498 768.832C585.578 768.482 580.678 767.832 575.838 766.892C570.998 765.952 566.228 764.642 561.548 763.092C556.868 761.532 552.288 759.682 547.868 757.492C546.438 756.842 545.078 756.062 543.688 755.342L543.668 755.352Z" fill="white"/>
<path d="M530.388 818.502C530.318 818.502 530.298 818.502 530.208 818.442C529.578 818.072 528.608 817.102 530.018 815.832C530.048 815.812 530.168 815.722 530.238 815.712C531.808 815.662 533.368 815.532 534.938 815.552C544.968 815.362 555.008 816.582 564.758 818.902C569.628 820.102 574.418 821.602 579.108 823.382C581.458 824.252 583.758 825.262 586.048 826.272L588.768 827.572C588.768 827.572 588.998 827.702 589.398 827.932C589.798 828.152 590.338 828.482 590.948 828.882C592.168 829.682 593.728 830.652 594.908 831.612C599.018 834.672 596.908 834.172 594.058 832.912C594.188 833.012 592.508 832.192 590.758 831.442C589.028 830.642 587.228 829.932 587.228 829.932L586.028 829.362L585.428 829.072L584.928 828.832L584.098 828.472L580.788 827.042L577.418 825.732C572.908 824.062 568.298 822.652 563.618 821.522C558.938 820.382 554.178 819.602 549.398 819.052C544.618 818.522 539.798 818.262 534.988 818.362C533.458 818.342 531.938 818.472 530.408 818.522L530.388 818.502Z" fill="white"/>
<path d="M558.618 761.822C558.638 761.752 558.638 761.732 558.728 761.662C559.248 761.142 560.438 760.502 561.288 762.202C561.308 762.232 561.358 762.372 561.348 762.442L560.328 766.972L551.368 806.772C551.368 806.772 550.158 810.862 549.088 813.682C547.398 818.492 547.238 816.382 547.598 813.242C547.468 813.552 548.728 805.802 548.728 805.802L557.598 766.362L558.618 761.832V761.822Z" fill="white"/>
<path d="M590.238 768.932C590.258 768.862 590.258 768.842 590.348 768.772C590.868 768.252 592.058 767.612 592.908 769.312C592.928 769.342 592.978 769.482 592.968 769.552L591.948 774.082L582.988 813.882C582.988 813.882 581.778 817.972 580.708 820.792C579.018 825.602 578.858 823.492 579.218 820.352C579.088 820.662 580.348 812.912 580.348 812.912L589.218 773.472L590.238 768.942V768.932Z" fill="white"/>
<path d="M694.738 779.792C694.678 779.782 694.658 779.772 694.598 779.692C694.368 779.452 694.088 779.042 694.038 778.572C693.998 778.102 694.178 777.572 695.098 777.122C695.128 777.102 695.288 777.052 695.358 777.052C697.038 777.442 698.628 778.132 700.058 779.052C702.368 780.552 704.288 782.682 705.428 785.242C706.598 787.782 706.838 790.792 706.148 793.492C705.468 796.202 703.968 798.692 701.788 800.502C700.698 801.402 699.438 802.122 698.068 802.562C696.698 803.012 695.258 803.172 693.848 803.082C691.028 802.902 688.298 801.772 686.208 799.822C685.168 798.842 684.298 797.652 683.738 796.302C683.168 794.982 682.898 793.552 682.858 792.142C682.788 789.312 683.658 786.592 685.048 784.252C686.468 781.872 688.438 779.992 690.568 778.442C692.708 776.892 695.008 775.682 697.328 774.612C699.658 773.572 702.018 772.592 704.428 771.782C709.248 770.132 714.228 768.942 719.268 768.232C724.318 767.552 729.428 767.342 734.518 767.622L735.348 767.662H735.518L735.868 767.702L736.558 767.762L737.948 767.882C737.948 767.882 738.218 767.922 738.668 768.002C739.108 768.092 739.738 768.232 740.458 768.382C741.898 768.662 743.668 769.192 745.108 769.662C749.978 771.332 747.798 771.492 744.708 771.162C744.858 771.222 743.008 771.012 741.128 770.842C740.188 770.782 739.228 770.712 738.518 770.672C737.798 770.652 737.318 770.632 737.318 770.632L736.008 770.512L735.348 770.452H735.188L734.458 770.402L732.648 770.322C727.818 770.142 722.968 770.472 718.198 771.222C713.428 771.982 708.718 773.162 704.178 774.812C699.688 776.522 695.108 778.402 691.458 781.262C689.648 782.702 688.078 784.392 687.058 786.372C686.028 788.342 685.478 790.582 685.698 792.712C685.888 794.852 686.888 796.782 688.548 798.122C690.178 799.472 692.338 800.262 694.468 800.302C696.608 800.362 698.658 799.562 700.258 798.122C701.858 796.692 702.998 794.702 703.478 792.582C703.978 790.452 703.758 788.242 702.828 786.272C701.918 784.302 700.388 782.592 698.528 781.392C697.358 780.642 696.068 780.082 694.728 779.772L694.738 779.792Z" fill="white"/>
<path d="M741.928 808.592C741.988 808.602 742.008 808.612 742.068 808.692C742.298 808.932 742.578 809.342 742.628 809.812C742.668 810.282 742.488 810.812 741.568 811.262C741.538 811.282 741.378 811.332 741.308 811.332C739.628 810.942 738.038 810.252 736.608 809.332C734.298 807.832 732.378 805.702 731.238 803.142C730.068 800.602 729.828 797.592 730.518 794.892C731.198 792.182 732.698 789.692 734.878 787.882C735.968 786.982 737.228 786.262 738.598 785.822C739.968 785.372 741.408 785.212 742.818 785.302C745.638 785.482 748.368 786.612 750.458 788.562C751.498 789.542 752.368 790.732 752.928 792.082C753.498 793.402 753.768 794.832 753.808 796.242C753.878 799.072 753.008 801.792 751.618 804.132C750.198 806.512 748.228 808.392 746.098 809.942C743.958 811.492 741.658 812.702 739.338 813.772C737.008 814.812 734.648 815.792 732.238 816.602C727.418 818.252 722.438 819.442 717.398 820.152C712.348 820.832 707.238 821.042 702.148 820.762L701.318 820.722H701.148L700.798 820.682L700.108 820.622L698.718 820.502C698.718 820.502 698.448 820.462 697.998 820.382C697.558 820.292 696.928 820.152 696.208 820.002C694.768 819.722 692.998 819.192 691.558 818.722C686.688 817.052 688.868 816.892 691.958 817.222C691.808 817.162 693.658 817.372 695.538 817.542C696.478 817.602 697.438 817.672 698.148 817.712C698.868 817.732 699.348 817.752 699.348 817.752L700.658 817.872L701.318 817.932H701.478L702.208 817.982L704.018 818.062C708.848 818.242 713.698 817.912 718.468 817.162C723.238 816.402 727.948 815.222 732.488 813.572C736.978 811.862 741.558 809.982 745.208 807.122C747.018 805.682 748.588 803.992 749.608 802.012C750.638 800.042 751.188 797.802 750.968 795.672C750.778 793.532 749.778 791.602 748.118 790.262C746.488 788.912 744.328 788.122 742.198 788.082C740.058 788.022 738.008 788.822 736.408 790.262C734.808 791.692 733.668 793.682 733.188 795.802C732.688 797.932 732.908 800.142 733.838 802.112C734.748 804.082 736.278 805.792 738.138 806.992C739.308 807.742 740.598 808.302 741.938 808.612L741.928 808.592Z" fill="white"/>
<path d="M840.348 248.052C840.368 247.992 840.378 247.962 840.468 247.902C841.018 247.432 842.258 246.822 842.998 248.562C843.008 248.592 843.048 248.742 843.048 248.802L842.348 251.162C842.228 251.552 842.128 251.952 841.988 252.342L840.478 256.552C837.788 263.382 834.278 269.842 830.298 275.952C826.298 282.052 821.828 287.802 817.188 293.372C814.868 296.152 812.498 298.892 810.098 301.602L806.498 305.652L805.598 306.662L805.148 307.172L804.918 307.422L804.858 307.482L804.828 307.512C800.608 303.862 803.678 306.482 802.738 305.662L802.848 305.532L804.568 303.452C809.138 297.902 813.588 292.212 818.128 286.592C820.588 283.562 823.048 280.542 825.618 277.572C828.198 274.612 830.928 271.712 834.028 269.162C837.138 266.642 840.668 264.442 844.648 263.282C845.148 263.152 845.638 262.982 846.148 262.882L847.668 262.592C848.718 262.412 849.818 262.362 850.918 262.452C852.018 262.552 853.168 262.812 854.258 263.402C855.348 263.982 856.308 265.002 856.798 266.202C857.298 267.412 857.328 268.762 857.078 269.892C856.828 271.042 856.378 272.062 855.868 272.982C855.348 273.912 854.768 274.762 854.158 275.582L852.408 277.922L845.398 287.262L831.388 305.932L824.378 315.272L820.878 319.942L820.768 320.092L820.718 320.162C819.718 319.432 822.928 321.852 818.458 318.532L818.488 318.492L818.708 318.192L819.148 317.602L820.038 316.432L821.828 314.112C826.638 307.952 831.638 301.942 836.918 296.162C842.208 290.392 847.728 284.792 854.058 279.982C854.828 279.352 855.668 278.802 856.498 278.252C857.338 277.702 858.158 277.112 859.018 276.632C860.738 275.632 862.648 274.632 864.868 274.262C865.988 274.082 867.128 274.082 868.268 274.312C869.398 274.542 870.538 275.002 871.498 275.792C872.468 276.572 873.178 277.642 873.578 278.762C873.988 279.882 874.118 281.042 874.068 282.172C873.918 285.042 872.538 287.432 871.158 289.462C869.748 291.492 868.328 293.372 866.888 295.322C864.008 299.182 861.058 302.982 858.048 306.732C855.028 310.482 851.948 314.172 848.788 317.812C847.208 319.632 845.618 321.432 844.008 323.222C842.408 325.012 840.738 326.782 839.198 328.542C837.668 330.312 836.278 332.142 835.358 334.132C834.898 335.122 834.548 336.172 834.378 337.192L834.318 337.562V337.652L834.268 338.342C834.268 338.802 834.288 339.262 834.348 339.722C834.348 339.722 834.368 340.652 834.708 341.892C835.028 343.122 835.798 344.592 836.778 345.522C837.628 346.282 838.338 346.652 838.758 346.862C839.178 347.102 839.298 347.252 839.148 347.372C838.998 347.462 838.568 347.562 837.958 347.492C837.348 347.422 836.548 347.192 835.788 346.722C835.848 346.792 835.428 346.542 834.828 346.042C834.248 345.522 833.528 344.712 832.978 343.782C832.418 342.852 832.048 341.822 831.828 341.032C831.608 340.242 831.548 339.682 831.548 339.682C831.478 339.112 831.478 338.542 831.508 337.962L831.538 337.532L831.558 337.312C831.558 337.312 831.558 337.242 831.568 337.202L831.748 336.162C832.288 333.702 833.478 331.492 834.858 329.562C836.238 327.622 837.808 325.912 839.338 324.252C845.428 317.612 851.298 310.762 856.918 303.722C859.728 300.202 862.478 296.632 865.158 293.012C866.488 291.212 867.868 289.362 869.088 287.572C870.278 285.792 871.218 283.912 871.298 282.042C871.378 280.422 870.868 278.832 869.758 277.962C868.658 277.052 866.938 276.752 865.338 277.022C863.698 277.292 862.068 278.092 860.448 279.042C859.618 279.512 858.858 280.062 858.068 280.582C857.278 281.102 856.488 281.612 855.748 282.222C849.678 286.842 844.208 292.352 838.998 298.052C833.778 303.762 828.818 309.722 824.048 315.832L822.278 318.132L821.398 319.282L820.958 319.862L820.748 320.152L820.718 320.192C816.228 316.852 819.488 319.242 818.498 318.492L818.548 318.422L818.658 318.272L822.158 313.602L829.168 304.262L843.178 285.592L850.188 276.252L851.938 273.922C852.498 273.172 853.008 272.422 853.438 271.652C854.308 270.112 854.748 268.472 854.238 267.302C853.978 266.692 853.538 266.222 852.918 265.872C852.298 265.532 851.508 265.322 850.678 265.252C849.848 265.182 848.978 265.212 848.118 265.362L846.778 265.622C846.328 265.702 845.898 265.862 845.458 265.972C841.948 266.992 838.728 268.972 835.808 271.342C832.898 273.732 830.268 276.522 827.738 279.422C825.218 282.342 822.758 285.352 820.318 288.362C815.788 293.962 811.338 299.652 806.738 305.242L805.008 307.332L804.898 307.462C803.948 306.652 806.988 309.322 802.758 305.662L802.788 305.632L802.848 305.572L803.078 305.322L803.528 304.822L804.428 303.812L808.018 299.772C810.398 297.072 812.758 294.352 815.058 291.592C819.648 286.072 824.048 280.402 827.968 274.432C831.858 268.452 835.268 262.162 837.878 255.552L839.338 251.482C839.468 251.112 839.568 250.722 839.688 250.352L840.358 248.082L840.348 248.052Z" fill="white"/>
<path d="M844.148 341.062L833.088 354.642L846.298 354.112L844.148 341.062Z" fill="white"/>
<path d="M313.738 446.512C313.678 446.542 313.658 446.552 313.548 446.542C312.838 446.492 311.508 446.082 312.188 444.302C312.198 444.272 312.278 444.132 312.328 444.092C313.698 443.282 315.118 442.562 316.548 441.872C328.208 436.422 341.748 435.082 354.218 438.372C360.458 439.992 366.358 442.792 371.638 446.452C374.278 448.282 376.768 450.332 379.058 452.592L380.288 453.852C380.608 454.192 380.948 454.512 381.248 454.872C381.248 454.872 381.918 455.742 382.778 456.932C383.178 457.552 383.628 458.242 384.088 458.952C384.508 459.672 384.908 460.422 385.268 461.102C387.548 465.732 385.888 464.272 383.938 461.892C383.968 461.962 383.698 461.642 383.258 461.122C382.838 460.592 382.228 459.892 381.578 459.202C380.958 458.492 380.288 457.822 379.788 457.312C379.288 456.802 378.948 456.462 378.948 456.462L378.038 455.522L377.588 455.052L377.148 454.592L376.328 453.822C374.148 451.762 371.798 449.862 369.298 448.192C364.288 444.872 358.748 442.352 352.928 440.892C347.108 439.462 341.028 439.032 335.048 439.632C329.078 440.252 323.188 441.832 317.748 444.382C316.398 445.042 315.048 445.712 313.758 446.482L313.738 446.512Z" fill="white"/>
<path d="M325.418 394.332C325.388 394.272 325.368 394.252 325.378 394.132C325.388 393.372 325.838 392.142 327.628 392.792C327.658 392.802 327.798 392.872 327.838 392.922C328.578 394.232 329.418 395.482 330.278 396.722C337.358 406.672 347.958 414.142 359.778 417.232C365.678 418.812 371.868 419.252 377.948 418.702C380.988 418.422 384.018 417.892 386.968 417.102L388.578 416.632C388.998 416.502 389.438 416.392 389.848 416.242C389.848 416.242 390.848 415.972 392.218 415.612C392.898 415.412 393.658 415.182 394.438 414.952C395.208 414.702 395.978 414.442 396.698 414.222C401.408 412.422 399.998 413.882 397.288 415.652C397.368 415.632 396.998 415.852 396.378 416.192C395.768 416.552 394.908 416.992 394.018 417.412C393.138 417.862 392.228 418.242 391.528 418.532C390.838 418.822 390.368 419.012 390.368 419.012L389.048 419.402L388.388 419.602L387.748 419.792L386.598 420.072C383.528 420.832 380.398 421.352 377.248 421.582C370.948 422.032 364.558 421.472 358.448 419.782C352.348 418.072 346.558 415.312 341.388 411.662C336.238 408.002 331.668 403.512 327.998 398.342C327.098 397.032 326.208 395.712 325.418 394.332Z" fill="white"/>
<path d="M350.138 457.062C350.118 457.132 350.118 457.152 350.028 457.222C349.488 457.722 348.278 458.322 347.488 456.592C347.478 456.562 347.428 456.412 347.438 456.352L348.618 451.862L359.548 410.372C359.548 410.372 360.908 406.322 362.078 403.552C363.948 398.802 364.028 400.922 363.548 404.042C363.688 403.742 362.148 411.442 362.148 411.442L351.318 452.582L350.138 457.072V457.062Z" fill="white"/>
<path d="M401.688 324.762C401.618 324.802 401.588 324.822 401.468 324.822C401.028 324.822 400.478 324.682 400.208 324.312C399.918 323.942 399.918 323.332 400.158 322.562C400.158 322.532 400.208 322.412 400.238 322.372C401.238 321.782 401.978 320.732 402.458 319.472C402.978 318.152 403.218 316.632 403.328 315.102C403.388 314.322 403.388 313.572 403.388 312.752C403.388 311.922 403.388 311.082 403.438 310.232C403.528 308.532 403.718 306.782 404.318 305.032C404.878 303.292 406.058 301.532 407.748 300.452C409.478 299.382 411.328 299.112 412.948 298.852C414.568 298.612 416.078 298.382 417.188 297.772C418.278 297.172 418.948 296.152 419.308 294.772C419.668 293.402 419.738 291.852 419.848 290.172C419.988 288.452 420.268 286.642 421.208 284.892C421.688 284.032 422.378 283.182 423.288 282.602C424.198 282.012 425.248 281.712 426.188 281.612C428.088 281.412 429.728 281.692 431.078 281.522C432.408 281.372 433.268 280.772 433.788 279.642C434.318 278.502 434.448 276.912 434.648 275.272C434.748 274.452 434.858 273.582 435.078 272.692C435.198 272.242 435.308 271.802 435.518 271.342C435.618 271.112 435.708 270.882 435.818 270.662L436.198 270.022C436.268 269.922 436.328 269.812 436.398 269.712L436.578 269.492L436.708 269.332L436.968 269.012C437.138 268.792 437.348 268.622 437.538 268.432C437.918 268.042 438.368 267.752 438.788 267.432C438.788 267.432 439.068 267.292 439.528 267.052C439.998 266.842 440.668 266.572 441.468 266.402C443.048 266.002 445.158 266.122 446.668 266.772C447.308 267.042 447.808 267.312 448.168 267.612C448.538 267.882 448.768 268.142 448.918 268.352C449.228 268.762 449.208 268.942 449.028 268.962C448.638 269.022 447.588 268.392 446.178 268.242C446.318 268.302 444.648 267.962 443.008 268.432C442.188 268.622 441.438 269.022 440.908 269.322C440.658 269.492 440.448 269.642 440.298 269.742C440.168 269.862 440.088 269.922 440.088 269.922C439.778 270.132 439.518 270.382 439.258 270.642C439.118 270.762 439.028 270.912 438.908 271.052L438.828 271.152L438.728 271.272C438.668 271.332 438.648 271.402 438.598 271.472C438.428 271.742 438.258 272.012 438.158 272.312C437.648 273.482 437.528 275.042 437.328 276.652C437.118 278.252 436.948 280.112 435.728 281.872C435.118 282.732 434.238 283.432 433.258 283.822C432.278 284.222 431.298 284.322 430.418 284.342C428.658 284.372 427.108 284.172 425.908 284.472C424.748 284.732 423.958 285.522 423.438 286.762C422.918 287.992 422.718 289.462 422.638 291.012C422.528 292.612 422.438 294.342 421.868 296.122C421.568 297.012 421.118 297.902 420.458 298.682C419.808 299.462 418.938 300.072 418.068 300.472C416.298 301.272 414.558 301.422 413.028 301.672C411.478 301.912 410.088 302.222 409.098 302.952C407.018 304.382 406.388 307.482 406.278 310.512C406.248 311.282 406.228 312.062 406.238 312.852C406.238 313.662 406.238 314.522 406.158 315.362C406.028 317.052 405.768 318.772 405.108 320.472C404.508 322.082 403.408 323.752 401.728 324.752L401.688 324.762Z" fill="white"/>
<path d="M419.038 339.652C418.968 339.692 418.938 339.712 418.818 339.712C418.378 339.712 417.828 339.572 417.558 339.202C417.268 338.832 417.268 338.222 417.508 337.452C417.508 337.422 417.558 337.302 417.588 337.262C418.578 336.662 419.328 335.622 419.808 334.362C420.328 333.042 420.568 331.522 420.678 329.992C420.738 329.212 420.738 328.462 420.738 327.642C420.738 326.812 420.738 325.972 420.788 325.122C420.878 323.422 421.068 321.672 421.668 319.922C422.228 318.182 423.408 316.422 425.098 315.342C426.828 314.272 428.678 314.002 430.298 313.742C431.918 313.502 433.428 313.272 434.538 312.662C435.628 312.062 436.298 311.042 436.658 309.662C437.018 308.292 437.088 306.742 437.198 305.062C437.338 303.342 437.618 301.532 438.558 299.782C439.038 298.922 439.728 298.072 440.638 297.492C441.548 296.902 442.598 296.602 443.538 296.502C445.438 296.302 447.078 296.582 448.428 296.412C449.758 296.262 450.618 295.662 451.138 294.532C451.668 293.392 451.798 291.802 451.998 290.162C452.098 289.342 452.208 288.472 452.428 287.582C452.548 287.132 452.658 286.692 452.868 286.232C452.968 286.002 453.058 285.772 453.168 285.552L453.548 284.912C453.618 284.812 453.678 284.702 453.748 284.602L453.928 284.382L454.058 284.222L454.318 283.902C454.488 283.682 454.698 283.512 454.888 283.322C455.268 282.932 455.718 282.642 456.138 282.322C456.138 282.322 456.418 282.182 456.878 281.942C457.348 281.732 458.018 281.462 458.818 281.292C460.398 280.892 462.508 281.012 464.018 281.662C464.658 281.932 465.158 282.202 465.518 282.502C465.888 282.772 466.118 283.032 466.268 283.242C466.578 283.652 466.558 283.832 466.378 283.852C465.988 283.912 464.938 283.282 463.528 283.132C463.668 283.192 461.998 282.852 460.358 283.322C459.538 283.512 458.788 283.912 458.258 284.212C458.008 284.382 457.798 284.532 457.648 284.632C457.518 284.752 457.438 284.812 457.438 284.812C457.128 285.022 456.868 285.272 456.608 285.532C456.468 285.652 456.378 285.802 456.258 285.942L456.178 286.042L456.078 286.162C456.018 286.222 455.998 286.292 455.948 286.362C455.778 286.632 455.608 286.902 455.508 287.202C454.998 288.372 454.878 289.932 454.678 291.542C454.468 293.142 454.298 295.002 453.078 296.762C452.468 297.622 451.588 298.322 450.608 298.712C449.628 299.112 448.648 299.212 447.768 299.232C446.008 299.262 444.458 299.062 443.258 299.362C442.098 299.622 441.308 300.412 440.788 301.652C440.268 302.882 440.068 304.352 439.988 305.902C439.878 307.502 439.788 309.232 439.218 311.012C438.918 311.902 438.468 312.792 437.808 313.572C437.158 314.352 436.288 314.962 435.418 315.362C433.648 316.162 431.908 316.312 430.378 316.562C428.828 316.802 427.438 317.112 426.448 317.842C424.368 319.272 423.738 322.372 423.628 325.402C423.598 326.172 423.578 326.952 423.588 327.742C423.588 328.552 423.588 329.412 423.508 330.252C423.378 331.942 423.118 333.662 422.458 335.362C421.858 336.972 420.758 338.642 419.078 339.642L419.038 339.652Z" fill="white"/>
<path d="M527.458 199.692C527.398 199.692 527.378 199.702 527.288 199.652C526.988 199.532 526.568 199.282 526.318 198.872C526.078 198.472 525.998 197.912 526.668 197.102C526.688 197.072 526.818 196.972 526.888 196.942C527.768 196.742 528.658 196.702 529.538 196.712C529.978 196.732 530.418 196.752 530.848 196.822C531.068 196.842 531.278 196.882 531.498 196.922L531.818 196.982L531.978 197.012L532.058 197.032L532.708 197.202C535.418 197.962 537.858 199.512 539.748 201.522C541.648 203.512 543.038 205.872 544.108 208.302C546.198 213.182 547.248 218.282 547.968 223.382C548.308 225.932 548.558 228.492 548.758 231.032L549.028 234.842L549.148 236.742V236.982L549.168 237.042V237.072C551.608 236.642 545.848 237.692 546.438 237.572L546.408 237.452L546.278 236.982L546.018 236.032C544.688 230.972 544.198 225.722 544.428 220.532C544.648 215.792 545.408 211.082 546.678 206.522C546.978 205.382 547.348 204.252 547.698 203.122C548.078 201.972 548.538 200.832 549.088 199.722C550.198 197.542 551.728 195.302 554.188 193.972C555.408 193.322 556.808 192.972 558.218 193.002C559.628 193.022 560.978 193.462 562.158 194.092C564.528 195.372 566.278 197.422 567.378 199.792C568.438 202.142 568.818 204.622 569.008 207.012C569.178 209.412 569.138 211.732 569.248 214.002C569.428 218.562 569.958 223.092 571.208 227.392C572.448 231.682 574.508 235.702 577.478 238.962C580.418 242.182 584.288 244.652 588.498 245.312C592.688 245.962 597.258 244.972 600.508 242.322C601.318 241.672 602.048 240.922 602.648 240.082C603.288 239.262 603.698 238.352 604.058 237.392C604.698 235.452 604.818 233.302 604.368 231.272C603.968 229.232 602.958 227.342 601.548 225.922C600.818 225.232 600.008 224.662 599.098 224.262C598.188 223.862 597.198 223.632 596.188 223.542C592.098 223.242 587.878 225.392 585.098 228.582C582.218 231.842 580.448 236.052 578.968 240.352C577.478 244.672 576.218 249.232 573.988 253.532C572.878 255.672 571.528 257.742 569.778 259.532C569.388 259.952 568.718 260.552 568.868 260.412L568.758 260.512L568.548 260.702C567.968 261.202 567.368 261.672 566.738 262.112C566.738 262.112 565.758 262.732 564.308 263.302C562.868 263.882 560.928 264.302 559.338 264.242C557.988 264.212 557.138 263.982 556.678 263.772C556.218 263.572 556.128 263.412 556.278 263.302C556.588 263.052 557.838 263.052 559.268 262.692C559.188 262.692 559.578 262.592 560.198 262.432C560.808 262.242 561.648 261.972 562.438 261.562C564.048 260.802 565.438 259.612 565.438 259.612C565.958 259.242 566.468 258.832 566.948 258.392L567.068 258.282C567.458 257.932 567.818 257.552 568.178 257.162C568.898 256.392 569.518 255.542 570.108 254.642C571.288 252.852 572.238 250.882 573.068 248.832C574.728 244.742 575.868 240.332 577.598 236.012C579.328 231.732 581.658 227.372 585.588 224.292C587.518 222.782 589.768 221.672 592.188 221.072C594.608 220.522 597.278 220.512 599.698 221.462C602.148 222.362 604.178 224.232 605.468 226.402C606.748 228.592 607.418 231.082 607.428 233.592C607.478 236.092 606.828 238.632 605.508 240.832C604.178 242.982 602.278 244.732 600.128 245.942C597.968 247.162 595.588 247.902 593.148 248.162C590.718 248.452 588.238 248.232 585.868 247.552C581.158 246.172 577.148 243.112 574.208 239.382C571.208 235.662 569.278 231.192 568.128 226.672C566.978 222.122 566.548 217.482 566.418 212.892C566.348 210.592 566.368 208.352 566.138 206.202C565.918 204.062 565.448 201.962 564.488 200.222C563.528 198.492 562.028 196.992 560.288 196.262C558.568 195.482 556.658 195.642 555.088 196.662C553.508 197.662 552.298 199.422 551.408 201.322C550.958 202.282 550.578 203.272 550.238 204.322C549.898 205.382 549.578 206.442 549.288 207.512C548.128 211.792 547.418 216.202 547.218 220.622C546.998 225.562 547.468 230.532 548.718 235.292L548.968 236.182L549.088 236.622L549.118 236.732C549.718 236.642 543.938 237.672 546.378 237.222V237.192V237.132V236.892L546.248 234.992L545.988 231.212C545.798 228.702 545.558 226.202 545.218 223.722C544.528 218.792 543.488 213.852 541.568 209.392C540.598 207.172 539.358 205.112 537.748 203.422C536.168 201.742 534.158 200.482 531.978 199.872L531.458 199.732H531.398L531.268 199.692L531.018 199.642C530.848 199.602 530.678 199.572 530.508 199.562C530.168 199.512 529.828 199.492 529.488 199.482C528.808 199.482 528.138 199.512 527.478 199.662L527.458 199.692Z" fill="white"/>
<path d="M683.938 253.432C683.938 253.432 683.868 253.492 683.758 253.512C683.038 253.662 681.698 253.572 681.888 251.682C681.888 251.652 681.928 251.502 681.968 251.442L685.258 248.172L730.668 203.022C730.668 203.022 733.888 200.222 736.308 198.422C740.318 195.272 739.318 197.142 737.328 199.592C737.608 199.402 732.378 205.262 732.378 205.262L687.238 250.162L683.948 253.432H683.938Z" fill="white"/>
<path d="M711.568 198.162C711.498 198.162 711.478 198.162 711.388 198.092C710.768 197.692 709.878 196.682 711.348 195.472C711.378 195.452 711.498 195.372 711.568 195.362H716.208H731.828H735.738H737.858H739.808H740.298C740.348 195.472 740.308 195.672 740.328 195.822V196.792V205.282V216.032C740.328 216.032 740.038 220.292 739.608 223.272C739.008 228.342 738.398 226.312 738.058 223.172C737.998 223.502 737.528 215.662 737.528 215.662V198.142H711.578L711.568 198.162Z" fill="white"/>
<path d="M686.518 218.862C686.518 218.862 686.458 218.792 686.438 218.682C686.288 217.962 686.378 216.622 688.268 216.812C688.298 216.812 688.448 216.852 688.498 216.892L691.758 220.192L710.128 238.752L711.948 240.592C711.948 240.592 714.738 243.822 716.538 246.242C719.678 250.262 717.818 249.262 715.368 247.262C715.558 247.542 709.708 242.292 709.708 242.292L708.148 240.712L689.768 222.152L686.498 218.852L686.518 218.862Z" fill="white"/>
<path d="M906.368 400.292C906.348 400.232 906.338 400.202 906.368 400.102C906.548 399.392 907.218 398.222 908.838 399.222C908.868 399.242 908.988 399.332 909.018 399.392L910.518 403.782L914.778 416.282L915.248 417.662L915.458 417.232C916.028 416.182 916.648 415.172 917.398 414.252C919.188 411.982 921.378 410.102 923.768 408.592C926.128 407.082 928.838 405.852 931.678 405.322C937.308 404.192 943.428 405.322 948.178 408.662C952.918 411.962 956.258 417.082 957.428 422.722C958.578 428.392 957.418 434.392 954.468 439.282C953.018 441.752 951.098 443.942 948.838 445.722C946.588 447.532 943.928 448.782 941.178 449.582C938.418 450.362 935.528 450.602 932.678 450.392C931.258 450.242 929.838 450.042 928.458 449.652C927.758 449.492 927.088 449.232 926.408 449.012C926.068 448.902 925.738 448.742 925.408 448.612L925.118 448.492L928.568 457.712C928.568 457.712 928.858 458.732 929.258 460.112C929.648 461.502 930.118 463.262 930.448 464.742C931.668 469.692 930.378 468.012 928.968 465.192C928.998 465.382 927.908 462.972 926.998 460.962C926.368 459.562 925.828 458.352 925.828 458.352L925.048 456.262L922.018 448.192L920.628 444.482L919.928 442.622L919.758 442.182C919.718 442.122 919.808 442.202 919.828 442.202L919.938 442.272L920.168 442.412L921.088 442.972C922.288 443.732 923.588 444.472 924.858 445.222C925.178 445.422 925.488 445.592 925.788 445.732L926.458 446.022C926.748 446.142 927.018 446.272 927.318 446.372C931.958 448.082 937.238 448.112 941.888 446.422C946.548 444.762 950.408 441.202 952.678 436.782C954.978 432.392 955.738 427.162 954.488 422.392C953.268 417.622 950.218 413.272 946.088 410.602C941.978 407.922 936.738 407.062 931.928 408.112C929.508 408.612 927.268 409.642 925.148 411.022C923.038 412.372 921.128 414.032 919.608 415.962C918.958 416.762 918.428 417.622 917.948 418.512L917.778 418.852C917.688 419.042 917.538 419.332 917.438 419.582C917.228 420.122 917.068 420.792 916.878 421.382L916.608 422.302L916.348 423.402L915.828 425.592L915.598 426.562C915.558 426.702 915.518 426.932 915.488 427.002L915.378 426.672L914.868 425.172L913.798 422.042L912.138 417.162L907.878 404.662L906.378 400.272L906.368 400.292Z" fill="white"/>
<path d="M885.998 408.852C885.978 408.792 885.968 408.762 885.998 408.662C886.178 407.952 886.848 406.782 888.468 407.782C888.498 407.802 888.618 407.892 888.648 407.952L890.148 412.342L909.598 469.402C909.598 469.402 910.698 473.522 911.258 476.492C912.328 481.482 911.088 479.762 909.758 476.902C909.808 477.232 906.838 469.962 906.838 469.962L887.498 413.252L885.998 408.862V408.852Z" fill="white"/>
<path d="M969.858 567.522C969.918 567.512 969.948 567.502 970.048 567.552C970.698 567.802 971.878 568.572 970.708 570.092C970.688 570.122 970.578 570.232 970.508 570.252C969.708 570.462 968.898 570.602 968.088 570.742C967.688 570.812 967.278 570.882 966.868 570.932L966.258 571.012L965.958 571.052L965.808 571.072L965.248 571.132L964.058 571.222C957.688 571.662 951.408 570.702 945.328 569.482C939.238 568.212 933.268 566.792 927.238 565.452L918.218 563.412L913.708 562.392L911.448 561.882L911.308 561.852C911.158 562.442 912.388 556.672 911.888 559.122H911.928L911.998 559.142L912.288 559.202L912.858 559.312L913.998 559.542C920.068 560.782 926.098 562.172 932.098 563.732C935.408 564.612 938.718 565.522 941.998 566.572C945.278 567.592 948.538 568.722 951.758 570.052C952.558 570.402 953.368 570.712 954.158 571.092L956.528 572.252C958.058 573.062 959.638 573.952 961.078 575.202C962.508 576.432 963.768 578.142 964.258 580.122C964.518 581.112 964.588 582.192 964.388 583.262C964.188 584.332 963.688 585.362 962.998 586.182C961.598 587.822 959.678 588.692 957.728 589.022C955.778 589.332 953.888 589.092 952.148 588.742C948.718 587.982 945.478 587.162 942.138 586.382L922.228 581.622L912.268 579.242L907.288 578.052L906.668 577.902L906.358 577.832L906.198 577.792H906.158C906.948 572.292 906.398 576.262 906.588 575.042H906.668L907.968 575.142C908.838 575.212 909.708 575.262 910.568 575.382C917.488 576.112 924.248 577.872 930.758 580.222C937.248 582.622 943.488 585.642 949.438 589.142C950.928 590.032 952.378 590.892 953.868 591.872C955.338 592.862 956.828 594.012 958.018 595.562C959.208 597.132 959.978 599.092 959.928 601.192C959.908 603.312 958.708 605.492 956.858 606.592C955.738 607.292 954.508 607.632 953.328 607.782C952.148 607.932 950.988 607.912 949.858 607.802C947.618 607.592 945.448 606.962 943.458 606.402L931.288 603.002L906.958 596.202C904.938 595.652 902.928 595.142 900.908 594.732C899.898 594.532 898.888 594.352 897.878 594.212L897.018 594.102C896.758 594.062 896.498 594.032 896.238 594.012C895.718 593.972 895.198 593.902 894.688 593.892C894.688 593.892 893.678 593.752 892.298 593.662C890.918 593.582 889.178 593.602 887.718 593.712C887.108 593.802 886.598 593.852 886.178 593.902C885.768 593.972 885.438 594.002 885.198 594.012C884.708 594.032 884.538 593.942 884.608 593.772C884.758 593.442 885.908 592.722 887.468 592.182C887.288 592.202 889.178 591.612 891.178 591.372C892.178 591.232 893.188 591.182 893.948 591.142C894.708 591.132 895.218 591.122 895.218 591.122L896.798 591.262L898.688 591.502C902.738 592.112 906.628 593.212 910.448 594.272L933.408 600.692L944.888 603.902C945.858 604.172 946.778 604.432 947.688 604.632C948.608 604.832 949.528 604.972 950.448 605.042C952.258 605.202 954.098 605.012 955.358 604.222C955.888 603.872 956.348 603.462 956.638 602.892C956.958 602.362 957.108 601.752 957.128 601.102C957.168 599.782 956.648 598.372 955.778 597.242C953.998 594.902 950.868 593.312 948.018 591.542C942.198 588.112 936.108 585.172 929.798 582.842C923.478 580.562 916.928 578.862 910.268 578.162C909.438 578.052 908.598 578.002 907.768 577.932L906.518 577.832H906.438C906.608 576.592 905.998 580.582 906.818 575.062H906.858L907.018 575.112L907.328 575.182L907.948 575.332L912.928 576.522L922.888 578.902L942.798 583.662C946.098 584.442 949.478 585.292 952.708 586.002C954.298 586.322 955.868 586.492 957.298 586.262C958.698 586.042 960.058 585.372 960.868 584.392C961.688 583.432 961.908 582.152 961.558 580.822C961.208 579.482 960.388 578.292 959.238 577.302C958.098 576.302 956.698 575.492 955.208 574.712L952.978 573.622C952.228 573.262 951.448 572.962 950.678 572.622C947.588 571.342 944.398 570.222 941.158 569.222C937.938 568.192 934.658 567.292 931.378 566.422C925.438 564.872 919.448 563.492 913.438 562.262L912.308 562.032L911.748 561.922L911.468 561.872H911.398L911.368 561.852C910.848 564.302 912.028 558.512 911.918 559.112L912.058 559.142L914.318 559.652L918.828 560.672L927.848 562.712C933.858 564.052 939.888 565.482 945.868 566.732C951.848 567.932 957.898 568.832 963.858 568.422L964.968 568.342L965.498 568.282L965.638 568.262L965.918 568.222L966.488 568.152C966.868 568.112 967.248 568.052 967.618 567.982C968.368 567.852 969.118 567.722 969.848 567.532L969.858 567.522Z" fill="white"/>
<path d="M894.188 577.952C894.188 577.882 894.188 577.852 894.258 577.762C894.658 577.112 895.678 576.292 896.878 577.742C896.898 577.772 896.978 577.892 896.988 577.952C896.978 579.442 897.068 580.932 897.238 582.422C897.948 588.642 900.208 594.682 903.708 599.852C907.208 605.032 912.038 609.292 917.578 612.222C920.338 613.702 923.288 614.822 926.318 615.582C927.848 615.972 929.318 616.252 930.798 616.272C932.258 616.292 933.698 616.082 934.828 615.482C935.948 614.882 936.728 613.872 936.978 612.682C937.238 611.472 936.978 610.082 936.398 608.852C936.328 608.722 936.218 608.492 936.188 608.442L936.118 608.322L935.968 608.072C935.868 607.912 935.748 607.752 935.638 607.592C935.408 607.282 935.158 607.002 934.888 606.732C934.888 606.732 934.728 606.562 934.458 606.272C934.178 605.992 933.768 605.612 933.248 605.202C932.208 604.382 930.688 603.522 929.368 602.852C927.098 601.772 926.418 601.292 926.768 601.102C927.098 600.922 928.408 601.052 929.978 601.422C929.828 601.352 931.698 601.792 933.568 602.672C934.498 603.102 935.418 603.662 936.068 604.152C936.718 604.632 937.128 605.042 937.128 605.042C937.488 605.422 937.818 605.822 938.108 606.252C938.258 606.462 938.388 606.682 938.528 606.902L938.628 607.072L938.658 607.122L938.738 607.272L938.898 607.582C939.098 607.992 939.278 608.422 939.418 608.862C939.998 610.602 940.118 612.642 939.338 614.522C938.568 616.412 936.868 617.792 935.098 618.412C933.318 619.062 931.508 619.132 929.798 619.012C928.058 618.892 926.428 618.482 924.848 618.072C921.658 617.212 918.588 615.952 915.698 614.362C909.938 611.172 904.878 606.652 901.228 601.142C897.578 595.642 895.228 589.302 894.478 582.742C894.298 581.152 894.188 579.552 894.208 577.942L894.188 577.952Z" fill="white"/>
<path d="M856.398 710.542C856.348 710.532 856.328 710.522 856.278 710.442C856.098 710.192 855.858 709.752 855.828 709.272C855.808 708.802 855.978 708.262 856.978 707.912C857.018 707.902 857.188 707.862 857.258 707.872C857.718 707.992 858.068 708.192 858.478 708.352C858.888 708.512 859.258 708.702 859.608 708.912C859.968 709.112 860.338 709.312 860.688 709.522L861.708 710.202C864.278 711.962 866.548 714.042 868.608 716.312C870.658 718.592 872.508 721.072 873.968 723.832C875.408 726.582 876.518 729.662 876.508 732.992C876.498 736.252 875.418 739.402 873.768 742.122C870.448 747.552 864.718 751.442 858.308 752.172C857.908 752.212 857.508 752.282 857.108 752.282H855.898C855.088 752.322 854.288 752.152 853.488 752.072C851.898 751.832 850.368 751.362 848.908 750.752C845.968 749.532 843.388 747.672 841.128 745.562C838.868 743.432 836.948 740.992 835.288 738.422C833.638 735.852 832.238 733.172 830.908 730.482C829.588 727.792 828.348 725.102 827.038 722.472C825.718 719.842 824.338 717.302 822.598 715.092C821.718 714.002 820.778 712.982 819.708 712.132C818.638 711.262 817.518 710.592 816.298 710.202C813.858 709.392 811.168 709.872 809.038 711.382L808.638 711.662L808.398 711.872L808.298 711.962C808.238 712.022 808.158 712.072 808.098 712.142L807.748 712.552C807.538 712.852 807.318 713.142 807.158 713.482C807.158 713.482 806.648 714.202 806.318 715.402C805.968 716.582 805.938 718.232 806.408 719.492C806.828 720.532 807.338 721.152 807.638 721.502C807.928 721.882 807.988 722.072 807.808 722.122C807.638 722.152 807.188 722.082 806.658 721.762C806.108 721.462 805.488 720.892 804.998 720.132C805.028 720.222 804.758 719.812 804.448 719.072C804.148 718.332 803.908 717.262 803.898 716.162C803.868 715.062 804.078 713.952 804.358 713.142C804.478 712.732 804.628 712.402 804.738 712.172C804.848 711.942 804.908 711.812 804.908 711.812C805.198 711.362 805.478 710.902 805.858 710.512C806.038 710.302 806.208 710.102 806.428 709.922L806.578 709.782L806.888 709.512C807.058 709.372 807.218 709.272 807.388 709.142C808.048 708.662 808.778 708.262 809.538 707.922C811.058 707.252 812.758 706.932 814.438 707.022C816.118 707.122 817.758 707.612 819.198 708.402C822.058 709.992 824.198 712.352 825.938 714.862C827.668 717.382 829.008 720.052 830.298 722.682C831.588 725.322 832.808 727.972 834.108 730.552C835.408 733.132 836.798 735.632 838.388 737.972C839.988 740.282 841.818 742.452 843.918 744.272C846.018 746.092 848.368 747.602 850.928 748.502C853.488 749.432 856.188 749.702 858.848 749.282C864.158 748.382 869.028 744.862 871.708 740.182C873.058 737.852 873.778 735.152 873.728 732.532C873.658 729.932 872.708 727.302 871.398 724.872C870.078 722.432 868.378 720.152 866.478 718.072C864.578 715.992 862.458 714.072 860.168 712.502C858.968 711.652 857.668 710.962 856.438 710.512L856.398 710.542Z" fill="white"/>
<path d="M839.438 707.222C839.438 707.222 839.498 707.272 839.518 707.382C839.598 707.712 839.628 708.212 839.438 708.652C839.238 709.082 838.808 709.442 837.808 709.372C837.768 709.372 837.608 709.332 837.548 709.302C836.288 708.142 835.228 706.762 834.448 705.242C832.898 702.282 832.468 698.772 833.198 695.512C833.558 693.882 834.198 692.312 835.078 690.902C835.978 689.502 837.108 688.252 838.428 687.222C841.048 685.142 844.418 684.062 847.748 684.162C851.078 684.232 854.388 685.522 856.878 687.742C858.128 688.832 859.208 690.142 860.018 691.602C860.818 693.062 861.368 694.662 861.638 696.312C862.178 699.592 861.568 703.082 859.848 705.952C858.998 707.382 857.918 708.682 856.648 709.762C855.368 710.832 853.888 711.672 852.328 712.242L851.808 712.432C851.748 712.452 851.688 712.462 851.628 712.482L851.268 712.582L850.538 712.772C850.048 712.872 849.548 712.942 849.048 713.032C849.048 713.032 848.758 713.032 848.258 713.032C847.768 713.052 847.078 712.972 846.298 712.892C844.738 712.662 842.858 711.992 841.538 711.112C840.398 710.412 839.788 709.782 839.488 709.382C839.178 708.992 839.178 708.802 839.368 708.772C839.758 708.702 840.868 709.302 842.278 709.752C842.148 709.652 843.788 710.342 845.558 710.442C846.428 710.502 847.318 710.482 847.968 710.392C848.288 710.342 848.568 710.312 848.758 710.282C848.948 710.242 849.048 710.212 849.048 710.212C849.438 710.142 849.838 710.102 850.228 709.982L850.808 709.832L850.948 709.792L851.338 709.642C851.648 709.522 851.968 709.432 852.258 709.272C854.688 708.202 856.638 706.192 857.848 703.842C859.018 701.462 859.348 698.692 858.778 696.102C858.198 693.512 856.708 691.162 854.648 689.492C852.558 687.862 849.938 686.912 847.278 686.952C844.628 686.982 841.988 687.902 839.948 689.592C837.918 691.282 836.418 693.652 835.918 696.262C835.388 698.852 835.718 701.642 836.958 703.982C837.588 705.212 838.438 706.322 839.458 707.252L839.438 707.222Z" fill="white"/>
</g>
<g filter="url(#filter1_d_94_207)">
<path d="M910.736 781.736C1060.86 631.618 1061.01 388.385 911.09 238.461C761.166 88.5372 517.933 88.6954 367.814 238.814C217.695 388.933 217.537 632.166 367.461 782.09C517.385 932.013 760.618 931.855 910.736 781.736Z" stroke="white" stroke-width="0.75" stroke-miterlimit="10"/>
</g>
<g filter="url(#filter2_d_94_207)">
<path d="M640.94 91C641.96 360.68 641.97 663.2 640.94 932.88C639.91 663.2 639.92 360.68 640.94 91Z" fill="white"/>
<path d="M851.41 147.39C717.45 381.45 566.2 643.45 430.47 876.48C564.42 642.41 715.69 380.43 851.41 147.39Z" fill="white"/>
<path d="M1005.48 722.41C771.42 588.45 509.42 437.2 276.39 301.47C510.46 435.42 772.44 586.69 1005.48 722.41Z" fill="white"/>
<path d="M1005.48 301.47C772.44 437.2 510.45 588.46 276.39 722.41C509.43 586.68 771.42 435.43 1005.48 301.47Z" fill="white"/>
<path d="M851.41 876.49C715.69 643.45 564.42 381.46 430.47 147.4C566.2 380.44 717.45 642.43 851.41 876.49Z" fill="white"/>
<path d="M1061.88 511.94C792.2 512.96 489.68 512.97 220 511.94C489.68 510.91 792.2 510.92 1061.88 511.94Z" fill="white"/>
</g>
</g>
<defs>
<filter id="filter0_d_94_207" x="296" y="177" width="691.204" height="672.896" filterUnits="userSpaceOnUse" color-interpolation-filters="sRGB">
<feFlood flood-opacity="0" result="BackgroundImageFix"/>
<feColorMatrix in="SourceAlpha" type="matrix" values="0 0 0 0 0 0 0 0 0 0 0 0 0 0 0 0 0 0 127 0" result="hardAlpha"/>
<feOffset/>
<feGaussianBlur stdDeviation="8"/>
<feColorMatrix type="matrix" values="0 0 0 0 1 0 0 0 0 0.352941 0 0 0 0 0.980392 0 0 0 0.95 0"/>
<feBlend mode="normal" in2="BackgroundImageFix" result="effect1_dropShadow_94_207"/>
<feBlend mode="normal" in="SourceGraphic" in2="effect1_dropShadow_94_207" result="shape"/>
</filter>
<filter id="filter1_d_94_207" x="238.747" y="109.747" width="801.058" height="801.058" filterUnits="userSpaceOnUse" color-interpolation-filters="sRGB">
<feFlood flood-opacity="0" result="BackgroundImageFix"/>
<feColorMatrix in="SourceAlpha" type="matrix" values="0 0 0 0 0 0 0 0 0 0 0 0 0 0 0 0 0 0 127 0" result="hardAlpha"/>
<feOffset/>
<feGaussianBlur stdDeviation="8"/>
<feColorMatrix type="matrix" values="0 0 0 0 1 0 0 0 0 0.352941 0 0 0 0 0.980392 0 0 0 0.95 0"/>
<feBlend mode="normal" in2="BackgroundImageFix" result="effect1_dropShadow_94_207"/>
<feBlend mode="normal" in="SourceGraphic" in2="effect1_dropShadow_94_207" result="shape"/>
</filter>
<filter id="filter2_d_94_207" x="204" y="75" width="873.88" height="873.88" filterUnits="userSpaceOnUse" color-interpolation-filters="sRGB">
<feFlood flood-opacity="0" result="BackgroundImageFix"/>
<feColorMatrix in="SourceAlpha" type="matrix" values="0 0 0 0 0 0 0 0 0 0 0 0 0 0 0 0 0 0 127 0" result="hardAlpha"/>
<feOffset/>
<feGaussianBlur stdDeviation="8"/>
<feColorMatrix type="matrix" values="0 0 0 0 1 0 0 0 0 0.352941 0 0 0 0 0.980392 0 0 0 0.95 0"/>
<feBlend mode="normal" in2="BackgroundImageFix" result="effect1_dropShadow_94_207"/>
<feBlend mode="normal" in="SourceGraphic" in2="effect1_dropShadow_94_207" result="shape"/>
</filter>
<clipPath id="clip0_94_207">
<rect width="1280" height="1024" fill="white"/>
</clipPath>
</defs>
</svg>
