<?xml version="1.0" encoding="UTF-8"?>
<svg id="Layer_2" data-name="Layer 2" xmlns="http://www.w3.org/2000/svg" viewBox="0 0 649.51 321.17">
  <defs>
    <style>
      .cls-1 {
        fill: #fff;
      }
    </style>
  </defs>
  <g id="Layer_1-2" data-name="Layer 1">
    <g>
      <path class="cls-1" d="M648.28,72.39c-.87-1.22-3.27-3.61-6.65-4.88-1-.38-2.1-.65-3.26-.77-.85-.09-1.56-.07-2.06-.03h-.05c-3.45,7.23-4.3,14.94-7.59,22.45-6.86,15.66-22.11,31.89-40.04,33.32-7.57.6-13.14-.8-16.99-3.59-.51-.36-.98-.74-1.42-1.16-7.48-6.87-6.84-19.93-.88-32.46,5-10.52,16.04-20.62,20.19-30.07,1.02-2.32.7-3.3-.43-3.66-.13-.04-.27-.08-.43-.1-.74-.12-1.74-.07-2.87.03-2.7.23-5.19,1.02-7.6,2.02-1.46.6-2.88,1.28-4.31,1.95-.33-1.46-.92-2.63-1.69-3.52-.39-.45-.82-.84-1.29-1.16-.1-.07-.21-.14-.3-.19-.2-.13-.39-.24-.6-.33,0,0,0,0,0,0-.21-.11-.42-.21-.63-.28h0c-.21-.09-.44-.16-.67-.23-5.15-1.56-12.69.89-17.15,2.72-.4.16-.8.33-1.2.51-1.19.51-2.33,1.06-3.42,1.64-.73.39-1.44.78-2.12,1.19-.35.21-.68.41-1.03.63-.67.42-1.32.85-1.96,1.29-.32.21-.63.45-.94.67-.62.45-1.22.92-1.81,1.39-.59.47-1.16.95-1.73,1.45-.56.49-1.1.98-1.64,1.5-.27.26-.53.51-.8.77-10.68,10.56-16.34,24.37-27.44,35.47-1.62,1.62-3.36,3.18-5.25,4.67-.63.49-2.17,1.57-3.96,2.61-.13.09-.27.16-.39.24-.26.14-.52.29-.78.43h0c-.27.15-.52.29-.79.43h0c-.66.34-1.32.65-1.94.91,0,0,0,0,0,0-1.64.66-3.03.93-3.63.33,0-.08-.02-.15-.03-.23-.35-5.47,12.8-22.38,16.76-28.53.24-.36.45-.68.61-.97,3.37-5.74,8.64-16.54.21-20.45-10.92-5.08-20.98,7.84-28.77,13.89-.21.16-.41.33-.62.47h0s0,0,0,0c-.09-.33-.04-.69.09-1.07.07-.23.18-.47.32-.71t0,0c.13-.25.29-.5.48-.74.06-.09.12-.17.19-.26.39-.51.83-1.04,1.29-1.56.37-.44.74-.88,1.09-1.32.21-.26.39-.51.57-.77.8-1.2,1.12-2.32.17-3.24-.06-.06-.14-.1-.24-.15-.19-.09-.45-.16-.78-.22-.11-.02-.23-.04-.36-.06-1.23-.17-3.08-.2-4.91-.14h0c-1.35.04-2.7.14-3.78.25-.93.09-1.67.21-2.05.32-.15.03-.28.08-.42.13-.27.09-.54.21-.79.36-.12.07-.24.16-.36.26-5.75,8-10.5,16.74-16.29,24.72-4.08,5.62-9.65,12.37-15.46,18.19-.58.58-1.16,1.16-1.76,1.72-1.76,1.68-3.52,3.26-5.27,4.68-.58.47-1.16.93-1.74,1.37-.57.43-1.15.85-1.71,1.24-1.79,1.24-5.74,3.91-7.83,3.36-.13-.03-.25-.08-.36-.14-.17-.09-.32-.21-.45-.35-.09-.1-.16-.21-.23-.34-.28-.52-.39-1.3-.28-2.41.52-5.15,9.22-18.06,12.42-22.84,3.42-5.09,11.36-13.78,13.58-18.77.43-.98.75-1.73.57-2.85-.03-.13-.1-.24-.21-.34-.14-.15-.36-.26-.63-.35-.14-.05-.28-.09-.45-.12-.08-.02-.16-.03-.25-.05-.17-.03-.36-.05-.56-.07-1.03-.11-2.35-.07-3.77.09-.25.03-.51.05-.76.09-1.35.17-2.75.45-4,.78-.38.09-.74.2-1.08.31-.15.05-.31.1-.45.15-.21.07-.4.14-.59.21-.97.39-1.7.81-2.03,1.26-.31,0-.63-.2-.97-.51-.05-.05-.1-.09-.15-.15-.63-.66-1.36-1.68-2.26-2.58-.06-.07-.14-.15-.21-.21-.08-.08-.15-.14-.22-.21-.07-.07-.15-.13-.21-.19-.15-.13-.31-.25-.46-.36s-.32-.21-.49-.31c-.25-.15-.51-.27-.79-.35-.09-.03-.18-.06-.27-.09-.65-.17-1.33-.29-2.01-.37-.69-.08-1.4-.11-2.13-.11-2.17.02-4.45.41-6.75,1.08,0,0,0,0,0,0-1.7.49-3.42,1.12-5.11,1.87-4.42,1.93-8.72,4.57-12.35,7.23-1.95,1.42-3.71,2.85-5.17,4.17-.63.57-1.25,1.16-1.86,1.79-7.59,7.69-14.31,19.5-22.05,29.15-.42.52-.84,1.04-1.27,1.55-.42.51-.85,1.01-1.28,1.5-.21.25-.43.5-.65.74-.65.73-1.31,1.43-1.99,2.11l-.68.68c-.9.88-1.81,1.73-2.76,2.53h0c-.47.39-.94.78-1.42,1.16-.96.74-1.94,1.42-2.95,2.05-.76.46-1.52.9-2.3,1.29-.52.26-1.05.51-1.58.73-3.77,1.6-5.65-2.37-6.48-7.2-.13-.79-.24-1.59-.32-2.4-.49-4.81-.11-9.7.38-10.38.46-.66,12.47-4.93,14.89-6.2,2.27-1.18,5.84-3.31,8.92-5.75.37-.28.72-.57,1.07-.87.34-.29.68-.59,1.01-.89,1.78-1.64,3.18-3.36,3.72-4.96.02-.06.04-.12.06-.19.41-1.28,1.1-4.1,1.27-4.81.86-3.84-3.89-8.18-7.69-8.3-3.1-.09-6.21.92-9.23,2.53-.86.46-1.72.97-2.58,1.52-.28.18-.57.37-.85.56-.84.57-1.67,1.16-2.49,1.79-.55.41-1.09.84-1.63,1.27-.54.43-1.07.86-1.59,1.29-.78.65-1.55,1.31-2.3,1.95-.75.65-1.49,1.28-2.2,1.9-.72.62-1.41,1.22-2.09,1.77-.45.38-.89.74-1.32,1.08.36-1.76,1.68-3.64,2.64-5.15,10.32-16.15,21.09-32,31.86-47.86,1.03-2.17.9-3.3.1-3.84-.11-.08-.24-.15-.38-.2-1.13-.45-3.05-.22-4.98-.06-2.65.21-8.27,1.28-10.19,3.1-2.82,2.67-7.15,10.55-9.48,14.19-15.08,23.62-35.61,65.42-57.82,81.38-.22.15-.46.33-.72.51-1.16.81-2.65,1.82-4.16,2.44-1.73.69-3.46.88-4.71-.3-.09-.09-.18-.18-.27-.28-2.55-3.02.14-15.44-.78-19.64,7.32-2.6,19.88-7.35,26.03-13.41.21-.21.42-.42.62-.62.39-.43.75-.86,1.08-1.29.58-.79,1.75-2.85,2.14-3.55,0-.02,0-.03.02-.03,1.69-2.95,1.02-8.28-1.65-10.9-.12-.13-.26-.25-.4-.37-.27-.22-.57-.43-.89-.59-3.84-2.03-8.15-1.14-12.38,1.05-.86.45-1.72.95-2.58,1.49-2.55,1.62-5.03,3.6-7.32,5.56-1.02.87-1.99,1.75-2.93,2.58-.93.83-1.81,1.63-2.63,2.36-.62.54-1.2,1.05-1.75,1.51-.12.03-.2,0-.25-.06-.02-.03-.03-.04-.04-.06-.03-.05-.04-.13-.04-.21-.02-.18.02-.39.06-.52.2-.63,1.3-2.42,2.98-4.98,0,0,0-.02.03-.03,2-3.06,4.84-7.21,7.96-11.72,3.43-4.97,7.22-10.38,10.64-15.31,4.17-6,7.78-11.28,9.55-14.1.09-.15.18-.28.26-.41,1.75-2.85,4.96-6.46,4.14-9.81-.03-.04-.06-.08-.11-.11-.09-.07-.22-.13-.38-.18-.15-.04-.32-.08-.51-.1-.65-.09-1.55-.09-2.59,0-.25.02-.51.04-.78.07-.27.02-.57.05-.85.09-.27.04-.56.08-.84.11h-.02c-.28.04-.57.09-.86.13-.87.13-1.75.28-2.56.45-.27.06-.53.11-.79.16-.14.02-.27.05-.39.08-.25.06-.48.11-.7.16h0c-.45.1-.86.21-1.22.31-.45.12-.8.24-1.03.33-.93.4-1.65.95-2.33,1.71-8.28,13.21-16.57,26.42-24.84,39.64-3.49.38-9.43.57-16.27-1.58-9.75-3.05-15.51-9.01-17.8-11.45-.06-.06-.12-.13-.17-.19-2.69-2.89-4.71-5.83-6.22-8.54,0-.02-.02-.04-.03-.06-1.64-2.96-2.69-5.65-3.36-7.68h0c.12.03.24.08.38.14.03,0,.05.02.08.03.92.4,2.25,1.2,3.72,2.14,3.66,2.34,8.2,5.56,9.67,5.77,1.22-1.17-8.48-13.07-9.37-15.18-.3-.72-.77-1.42-.2-2.17.23-.04.48-.09.74-.14,5.44-.97,17.67-2.01,25.14-3.41,3.84-.73,6.43-1.54,6.22-2.48-.15-.68-18.57-2.7-28.59-4.45-.85-.15-1.64-.29-2.35-.44-.02-.02-.03-.04-.03-.08-.27-1.23,6.28-9.89,8.66-13.4.05-.06.09-.12.12-.17.41-.61.68-1.04.73-1.21h0c.74-2.73-11.35,5.64-16.33,8.3-.02,0-.04.02-.06.03-1.09.58-1.82.87-1.99.71-.04-.27-.09-.55-.14-.84-1.46-8.99-3.43-28.61-4.73-28.61h-.03s-.06.02-.09.04c-.57.39-1.17,3.08-1.76,6.69,0,.06-.02.11-.03.17-1.34,8.36-2.59,21.43-2.98,22.27,0,.02-.02.03-.03.03-.69.51-1.51.18-2.18-.19l-15.17-10.54h0c-1.41,1.71,8.06,12.47,9.29,14.69.98,1.8-.39,2.29-2.11,2.6-4.51.83-9.61,1.01-14.61,1.42-1.66.14-3.3.3-4.91.52-.54.07-1.07.15-1.59.24-1.05.17-2.09.38-3.09.62-.51.12-.99.25-1.48.39-.06.02-.11.03-.15.05-2.95,1.29,29.63,6.6,29.63,6.6h0c1.53,1.53-10.17,15.14-10.81,17.63l16.02-9.82c.6-.39,1.12-.5,1.75-.03.05.04.11.14.16.28.03.05.04.11.06.17.05.14.09.31.14.51,1.22,4.99,3.25,27.32,3.96,27.65.02,0,.03.02.06.02.88,0,1.61-9.79,3.06-15.99.04-.18.09-.36.12-.53.09-.4.2-.8.33-1.19.05-.2.12-.39.19-.58.09-.27.18-.53.28-.77,0,0,.02.03.03.03,3.72,6.4,7.97,10.68,10.93,13.26.18.15.37.33.57.49,3.27,2.82,9.39,7.69,18.7,10.04,6.55,1.65,12.17,1.42,15.69,1.01.68.67-4.49,8.69-5.31,9.99-7.47,11.86-17.07,25.89-28.28,35.97-.9.81-1.81,1.59-2.72,2.35-2.29,1.88-4.64,3.59-7.05,5.07-3.97,2.43-7.65,4.55-12.18,4.55-.39,0-.77-.02-1.16-.05-.03,0-.07,0-.1,0-.39-.03-.8-.08-1.21-.15-.13-.03-.26-.05-.38-.09-4.36-1.34-1.59-12.37-.8-16.04,1.28-5.8,4.79-16.51,16.27-27.52.59-.57,5.38-4.54,11.57-5.28.05,0,.1,0,.15-.02.02,0,.04,0,.06,0,2.42-.25,3.42.21,3.91.84.7.92.46,2.43-.06,3.67-.13.31-.27.6-.42.86,0,0,0,0,0,.02-2.4,4.09-8.14,2.8-9.44,6.27-.04.11-.08.23-.11.35-.74,2.79-.04,4.54,1.43,5.5.54.35,1.17.6,1.88.76,1.24.28,2.71.3,4.22.11.63-.08,1.26-.27,1.9-.56.32-.15.63-.32.95-.51.8-.48,1.58-1.09,2.35-1.79.15-.15.3-.29.45-.44,2.97-2.95,5.35-7.27,5.62-10.3.02-.18.03-.39.03-.62,0-.28.02-.6,0-.93-.06-1.25-.36-2.81-1.31-4.3,0,0,0,0,0-.02-.05-.08-.1-.15-.16-.23-3.43-4.96-11.61-4.32-13.83-4.14-5.2.4-9.19,2.58-11.64,4.31-2.98,1.95-7.67,5.3-12.66,10.26-1.91,1.89-3.54,3.71-4.98,5.45-3.73,4.53-6.19,8.66-8.82,12.85-.05.07-.09.15-.14.21-1.71,2.71-3.51,5.44-5.8,8.31-.68.86-1.4,1.75-2.19,2.65-.57.64-1.53,1.7-2.77,2.97l-.29.29c-.2.2-.39.4-.6.62-.1.1-.21.21-.32.32-.11.09-.21.21-.33.32-.1.11-.21.22-.33.33-.22.22-.45.45-.68.67-.34.33-.7.68-1.06,1.03-.24.22-.48.45-.72.68h0c-.25.24-.5.47-.74.7-.13.11-.26.23-.39.35-.26.23-.51.46-.75.68-.51.46-1.04.92-1.55,1.37-.39.33-.77.65-1.16.97-.13.11-.27.22-.39.33-.25.21-.51.41-.75.61-1.52,1.21-3,2.24-4.29,2.96-.21.11-.42.22-.62.32,0,0,0,0,0,0-.21.09-.4.19-.59.27h0c-.97.4-1.78.55-2.39.35-2.53-3.48.97-9.76,2.8-13.25,4.08-7.78,9.65-15.19,14.97-22.64.53-.74,1.05-1.49,1.58-2.23.26-.38.52-.75.78-1.13.52-.74,1.04-1.5,1.55-2.24,0,0,0,0,0,0,.75-1.12,1.5-2.25,2.23-3.38.96-1.52,1.89-3.04,2.77-4.58l.04-2.1c-.09-.25-.29-.44-.6-.57-.11-.04-.22-.09-.34-.12-.07-.03-.15-.04-.23-.06-.18-.04-.38-.07-.59-.09h-.05c-.87-.09-1.99-.05-3.14.08-.64.06-1.29.15-1.93.26-.1.02-.21.03-.32.05-.42.07-.83.15-1.22.22-.1.02-.2.03-.29.06-.29.05-.57.11-.83.17-.09.02-.17.03-.25.06-.17.03-.33.07-.48.11-.52.13-.94.25-1.21.33-.16.06-.33.12-.48.19-.33.13-.64.29-.95.46-.31.17-.61.37-.89.58-.28.21-.56.44-.8.68-.12.12-.24.25-.35.38-7.51,8.72-14.36,21.84-21.7,31.45-2.81,3.67-5.89,7.64-8.85,11.1-.04.04-.09.09-.12.14-3.93,4.57-7.65,8.26-10.23,9.24-.04.03-.08.03-.12.05-.1.03-.21.08-.33.12-1.29.45-3.34,1.07-4.26.2-1.09-1.03-.27-3.79,1.29-7.09.02-.06.04-.11.08-.17,1.11-2.32,2.59-4.9,4.02-7.31.09-.16.19-.32.28-.47.27-.45.53-.88.79-1.31,1.21-2,2.57-4.2,4.07-6.58.2-.29.39-.6.57-.9,4.43-6.98,10.09-15.45,17.11-25.1h0c.2-.92.21-1.55-.2-1.96-.17-.18-.43-.32-.78-.42-.11-.03-.24-.07-.38-.09-.39-.08-1.51-.03-2.92.09-.27.03-.54.05-.82.08-2.04.2-4.46.5-6.27.78-.39.05-.74.11-1.06.17h0c-.63.1-1.12.21-1.37.28-.32.09-.63.27-.94.5-.93.66-1.8,1.76-2.39,2.53-5.19,6.89-20.86,31.7-23.24,39.14-.1.32-.2.63-.28.94-.18.62-.33,1.23-.46,1.83-.12.56-.22,1.1-.29,1.64,0,.07-.02.14-.03.21-.13.98-.18,1.92-.16,2.8.07,2.65.85,4.83,2.37,6.3,2.17,2.11,5.84,2.81,11.13,1.46,1.25-.32,2.45-.8,3.6-1.39.69-.36,1.37-.75,2.04-1.19.66-.43,1.31-.9,1.95-1.39.42-.33.84-.67,1.26-1.02,1.45-1.22,2.83-2.56,4.19-3.9.2-.2.39-.39.58-.58.19-.2.39-.39.57-.57.19-.2.38-.39.57-.58.19-.19.38-.39.57-.57.19-.2.38-.39.57-.57.19-.19.38-.38.56-.57.57-.56,1.12-1.1,1.68-1.62.56-.52,1.11-1.02,1.67-1.49,1.4-.22.74.62.85,1.46.43,3.1.94,6.18,2.86,8.12.27.28.58.54.92.77.9.61,2.03,1.03,3.46,1.21.16.03.33.04.5.05.33.03.66.05.98.06,1.99.06,3.9-.25,5.74-.86.33-.1.66-.22.99-.34,0,0,0,0,0,0,.33-.13.65-.27.98-.41,1.3-.59,2.57-1.31,3.8-2.13.3-.21.61-.41.91-.63.61-.44,1.21-.9,1.8-1.38.44-.35.87-.72,1.3-1.09.15-.13.29-.26.44-.39.29-.26.57-.51.86-.77.43-.39.85-.79,1.27-1.19.27-.27.55-.54.82-.8.14-.14.27-.27.41-.4.14-.15.27-.28.41-.41,3.12-3.15,6.04-6.41,8.85-8.95,1.25-.17.7.13.84.87.92,5.09,2.14,9.55,7.3,11.76.63.27,1.28.51,1.93.68,3.2.93,6.63.91,10.08.23,0,0,0,0,0,0,2.92-.57,5.86-1.61,8.7-2.9.32-.15.63-.29.95-.45.94-.45,1.87-.93,2.78-1.43,0,0,0,0,0,0,.61-.34,1.21-.68,1.8-1.03.59-.35,1.18-.71,1.76-1.07s1.14-.73,1.7-1.1c2.22-1.47,4.26-3,6.05-4.43.42,2.79-6.75,8.8-.2,8.53.74-.03,1.7-.12,2.77-.26.77-.1,1.58-.23,2.42-.39,1.34-.25,2.71-.57,3.96-.98l.46-.15c.46-.16.9-.33,1.31-.51.14-.06.27-.12.4-.18.39-.19.74-.39,1.06-.59.43-.28.78-.58,1.04-.9,3.97-4.82,7.65-13.13,11.4-18.63,2.15-3.12,4.62-6.2,7.11-9.06-.35,6.71-3.68,18.95,1.87,24.48.69.69,1.52,1.28,2.52,1.74,1.04.48,2.09.8,3.13.96.42.07.83.11,1.25.13,1.76.09,3.52-.21,5.22-.74.7-.21,1.4-.48,2.09-.78.17-.07.34-.15.51-.22.74-.33,1.48-.71,2.2-1.1h0c.53-.3,1.05-.61,1.58-.92.26-.16.51-.33.78-.49.51-.33,1-.65,1.49-.98.08-.05.16-.11.26-.18.18-.14.39-.31.62-.49.23-.19.47-.39.73-.61,1.39-1.19,3.01-2.69,3.48-2.89.36-.15.63-.12.79.04.14.16.17.45.06.8-.02.07-.04.13-.07.2-.09.19-.21.39-.33.57-.09.13-.18.26-.27.39-.77,1.03-1.69,2.09-.32,3.55.08.07.15.15.24.23l13.06-1.3,20.92-31.06c.51,9.09-4.82,19.56,3.54,26.5,3.84,1.2,6.55,1.76,9.65,1.21.54-.1,1.1-.24,1.67-.4.29-.09.58-.18.89-.28.59-.21,1.22-.46,1.87-.74,6.23-2.72,11.93-8.53,17.05-13.64.4-.4.79-.79,1.18-1.17.77-.77,1.53-1.51,2.29-2.22,1.37-.25.73.62.83,1.45.73,5.62,3.11,9.05,6.39,10.53.28.13.57.25.87.34,3.9,1.31,8.85.12,13.75-3.18,1.27-.86,2.89-2.5,4.55-4.31,3.35-3.66,6.88-8.04,8.25-8.3,1.23-.24.73.23.86.88.87,4.46,1.53,8.07,4.31,10.07.27.19.55.37.86.53.45.24.96.45,1.52.62,1.11.33,2.46.53,4.07.56.78.02,1.58-.07,2.38-.22.78-.15,1.57-.39,2.35-.68.25-.09.5-.18.74-.28,1-.42,2-.92,2.98-1.48.29-.16.58-.33.87-.51.25-.15.5-.3.74-.46.27-.17.56-.36.83-.55.25-.16.49-.33.73-.5.33-.23.67-.48,1-.72,1.49-1.09,2.86-2.2,4.07-3.19,2.39-1.96,4.31-4.6,6.93-6.35.22,2.7-2.13,5.11-3.19,7.2-.04.08-.09.15-.15.21-.05.06-.11.11-.16.16-.03.02-.05.04-.07.08-.15.15-.21.28.05.51.09.07.19.15.33.23.2.11.42.21.68.31.26.09.55.16.86.23,1.74.37,4.23.39,6.52.19.37-.03.74-.07,1.1-.11.54-.07,1.06-.14,1.54-.22.16-.03.33-.06.47-.09.77-.15,1.42-.32,1.91-.51.23-.09.98-.91,2.1-2.26,7.3-8.83,30.5-40.43,31.65-41.43,4.34-3.8,7.79-8.57,13.66-10.62.26.06.48.14.68.22.19.09.36.19.5.3.05.03.09.08.13.12,1.22,1.18,0,3.4-.8,5.06-.68,1.4-1.56,2.94-2.55,4.53-.29.45-.59.9-.89,1.36-3.51,5.32-8.14,11.1-11.22,15.26-2.29,3.09-5.13,8.81-5.33,12.63-.56,10.9,7.55,14.5,16.81,10.41,8.18-3.62,13.74-11.12,20.48-16.5,1.1-.15.74.13,1.02.74,1.41,3.21.83,5.77,3.5,8.42.39.38.83.76,1.36,1.15.27.21.56.39.83.57.27.17.56.33.83.48.27.15.56.27.83.39,2.62,1.12,5.24,1.08,7.82.27.15-.05.3-.09.45-.15.45-.16.9-.34,1.34-.54h0c.29-.14.59-.28.89-.43.45-.23.89-.48,1.34-.75.29-.18.58-.36.87-.55.58-.39,1.17-.8,1.76-1.24.72-.54,1.43-1.11,2.13-1.71.49-.42.98-.86,1.46-1.29.76-.7,1.52-1.41,2.25-2.14,1.07-1.05,2.11-2.12,3.13-3.17.25-.26.5-.52.74-.77.25-.26.5-.51.74-.76.36-.38.72-.74,1.08-1.1.12-.12.24-.24.36-.36.46-.47.92-.92,1.38-1.35.22-.22.45-.43.67-.63.55-.51,1.09-.98,1.6-1.4-.88,7.45-.54,13.97,2.45,20.94,1.05,2.45,2.63,4.6,4.56,6.46.84.8,1.74,1.54,2.69,2.24.33.23.65.45.98.68,1.33.88,2.74,1.67,4.22,2.37.37.17.74.34,1.11.51,1.52.65,3.07,1.22,4.67,1.71,1.19.36,2.41.68,3.62.95,5.09,1.13,10.26,1.44,14.61,1.02,1.35-.13,2.68-.35,3.97-.64.86-.2,1.7-.42,2.54-.67.84-.25,1.67-.52,2.48-.81,3.68-1.3,7.17-2.96,10.59-4.38.29-.12.61-.26.96-.42.05-.03.1-.05.16-.08.9-.42,1.97-.98,3.18-1.67.51-.29,1.03-.6,1.57-.94,6.24-3.86,15.14-10.94,22.64-22,.05-.07.09-.15.15-.22.7-1.03,1.62-2.39,2.6-3.96.57-.89,1.15-1.85,1.73-2.86,3.5-6.11,6.81-13.89,3.72-18.25ZM272.95,112.62c-.42-.39,2.71-4.09,3.17-4.62,3.73-4.34,8.24-8.77,12.73-12.11,1.68-1.25,8.64-6.65,10.42-4.09.32.65.31,1.36.31,2.06-.03,8.54-18.95,18.24-26.63,18.77ZM334.75,104.53c-1.14-1.13,3.58-4.85,4.37-5.74,3.76-4.28,8.16-8.36,13.01-11.81,2.51-1.8,6.03-4.73,9.11-3.14-.16,11.78-16.46,18.87-26.49,20.7ZM395.41,116.39c-2.29,2.17-12.04,10.87-11.57,2.89.74-12.51,22.46-43.23,35.09-45.81,1.18-.24,2.35-.37,3.39.4,2.11,1.68-.38,6.52-1.4,8.54-4.97,9.83-17.5,26.38-25.51,33.98ZM561.32,75.72c-6.28,8.4-10.98,14.59-19.78,21.59-5.06,4.03-9.25,7.3-11.15,6.05-1.94-1.3-1.4-6.2,1.81-13.66,4.88-11.33,11.1-19.18,15.12-23.03,2.13-2.04,14.13-13.55,18.71-10.59,1.47.95,1.68,3.07,1.82,4.52.5,5.03-2.07,9.15-6.53,15.11Z"/>
      <path class="cls-1" d="M294.91,156.82c-15.21,13.48-31.05,21.27-43.57,25.9-15.25,5.73-50.23,16.67-91.05,9.35,0,0-30.66-5.45-68.12-31.21-.41-.28-.59-.68-.63-1.16-.15-1.66,7.61-10.56,9.18-12.8,7.83-11.17,14.23-23.24,21.65-34.66,3.12-1.22,6.97-2.93,11.2-5.28,5.95-3.31,10.39-6.64,13.1-8.84,5.38-4.35,8.86-8.11,12.14-11.83,4.35-4.94,11.13-13.23,13.04-19.6,4.55-15.19-8.54-16.36-19.61-12.09-8.99,3.48-15.82,9.55-21.94,16.75-7.76,9.14-17.81,23.62-27.43,43.62-5.02,1.76-17.74,5.4-30.22-.04-3.7-1.61-10.22-4.45-12.19-10.73-1.32-4.21-.11-8.44.27-9.82,1.28-4.49,3.78-7.35,4.88-8.59,13.12-14.75,44.45-12.79,47.04-12.41.22.03,1.43.23,3.06.2,1.41-.03,2.62-.22,3.56-.43-19.73-18.73-66.26-8.74-73.47,18.24-6.27,23.47,15.22,33.53,35.11,33.42,5.15-.03,11.39-2.18,16.19-2.35.79-.03,1.74-.38,1.41.84l-20.03,30.85c-20.04-8.84-45.67-12.22-65.05.18-14.92,9.55-20.19,31.67-1.11,39.04,23.43,9.05,52.81-7.07,68.89-23.83l1.95-.29c17.51,10.01,33.29,23.33,51.94,31.29,28.55,12.19,56.12,13.88,86.57,8.4,14.09-2.53,68.89-14.06,81.99-52.02,1.6-4.64,2.23-8.68,2.52-11.34-3.29,3.71-7.02,7.5-11.26,11.25ZM126.23,96.73c1.58-3.55,3.39-6.72,6.94-11.91,2.05-3,10.29-14.88,18.21-20.7.23-.17.41-.29.46-.33,2.12-1.51,9.25-6.34,11.83-4.28,2.13,1.72,1.49,6.78-2.48,13.85-1.82,3.24-5,9.4-17.64,19.9-4.98,4.14-17.41,14.49-19.74,12.36-1.1-.99.41-4.37,2.41-8.9ZM68.77,166.93c-6.95,8.35-20.44,17.55-30.91,20.5-9.68,2.73-27.64,3.04-28.87-10.39-1-10.96,7.73-17.99,17.32-20.8,16.04-4.71,30.39-.68,45.03,6.1.63.92-1.87,3.77-2.57,4.6Z"/>
      <path class="cls-1" d="M403.43,169.43c-5,13.74-23.59,25.06-37.9,20.14-8.25-2.83-12.63-13.46-3.4-17.41,9.12,12,27.94,5.83,26.33-10.14-1.54-15.22-17.27-15.28-28.71-11.39-11.19,3.81-16.96,10.95-18.06,22.95-2.01,21.79,20.89,41.5,26.53,62.98,13.29,50.57-50.78,85.13-93.22,84.61-56.07-.69-62.62-56.14-20.49-84.01,14.11-9.33,35.75-16.33,52.64-13.46,40.56,6.89,27.01,51.9-6.24,60.44-7.66,1.97-21.02,2.89-25.09-5.47.1-3.46,6.5-.46,8.38-.27,19.21,1.95,41.45-14.9,32.91-35.22-8.69-20.67-42.62-7.15-55.43,2.9-29.28,22.96-28.27,65.51,14.98,68.16,18.28,1.12,36.64-6.12,50.26-17.94,7.22-6.27,16.08-16.39,19.73-24.83.37-.84,1.39-4.83,1.52-5.9.45-3.68,1.48-7.99,1.46-11.71-.09-21.75-18.03-36.69-24.58-56.17-2.39-7.11-2.57-19.01.34-25.95,8.35-19.98,34.72-33.36,55.86-31.98,11.12.73,23.34,8.2,23.4,20.57,0,1.78-.78,8.24-1.24,9.11Z"/>
      <path class="cls-1" d="M605.34,167.49c-3.95,14.9-8.72,28.83-18.51,40.97-7.54,9.36-28.53,25.32-40.63,16.46-2.83-2.08-2.37-5.4-1.64-8.48,2.85-11.96,14.49-19.46,19.02-30.07,3.24-7.59,1.73-13.81-5.68-17.64-3.1-1.6-6.63-1.89-9.19-4.13-.21-.39,2.34-5.7,2.45-5.95,5.03-11.49-6.75-12.39-12.5-5.29-3.06,3.77-4.51,8.98-2.76,13.69.52,1.4,2.13,2.78,2.16,3.6.05,1.97-13.99,21.65-16.27,24.74-6.23,8.42-21.39,28.58-30.57,32.39-8.25,3.42-7.41-4.92-4.98-10.18,4.01-8.68,13.41-18.3,18.24-26.79l12.81-18.98c-.8-1.15-1.98-.95-3.16-.88-2.59.14-14.32,2.35-15.94,3.72-1.23,1.04-1.7,3.14-3.42,3.79-.8-12.14-17.98-6.62-25.05-3.39-25.44,11.62-34.36,39.15-54.08,57.4-4.05,3.75-10.95,10.39-16.68,7.71-.24-.8-.12-1.66-.07-2.49.59-9.73,15.55-32.15,21.47-40.93,2.93-4.33,5.87-8.83,9.54-12.51l13.63-.61c.33-1.58,3.53-4.4,2.42-4.61-3.19-.57-8.53.52-12.11.59-2.45.04,1.02-3.95,1.55-4.83,1.81-3.01,4.4-6.98,6.82-10.34,1.63-2.25,10.9-11.28,3.18-10.85-2.98.17-12.15,1.53-14.57,2.78-6.1,3.14-13.72,20.11-18.94,25.54-2.56,2.17-15.2,1.12-14.78,6.04.05.67.33,1.21.99,1.41,1.27.39,7.98-1.25,9.85-1.58.82-.15.96-.15.76.77-.29,1.38-3.75,6.92-4.74,8.54-6.84,11.23-22.32,29.6-19.96,43.29.68,3.97,4.29,8.71,8.36,9.54,13.89,2.84,28.51-14.51,36.85-23.54,1.37-.25.72.62.83,1.46.57,4.23,1.22,9.15,4.63,12.13,11.76,10.3,28.22-9.82,35.54-17.64-.25,5.9,1.38,9.83,4.09,12.11,6.66,5.59,18.5-.71,20.99-2.04,5.69-3.02,9.12-6.98,10.87-9.09,14.73-17.69,23.78-39.32,35.14-47.71,1.44-1.06,4.94-3.64,6.99-2.38,1.4.86,2.21,2.73,1.78,5.37-1,6.09-14.32,23.08-16.52,26.81-4.22,7.16-5.12,18.68,2.5,23.89,22.71,15.55,60.84-9.05,73.1-29.17,1.41-2.32,4.14-7.03,4.56-8.74,0,0,1.21-3.87,1.61-6.42,1.08-6.71-.4-20.14-9.97-17.5ZM463.27,221.81c-2.53,2.71-11.4,11.37-14.59,12-3.82.76-2.67-8.23-2.54-8.87.37-1.83.82-3.16,1.22-4.18,2-5.07,3.02-7.67,4.8-10.96,1.24-2.3,6.26-11.22,17.73-22.96,11.77-12.04,15.03-10.66,16.17-11.01,2.25-.69,3.57,2.15,3.52,4.06-.27,9.44-19.44,34.54-26.32,41.92Z"/>
    </g>
  </g>
</svg>