<?xml version="1.0" encoding="UTF-8"?>
<svg id="Layer_8" data-name="Layer 8" xmlns="http://www.w3.org/2000/svg" viewBox="0 0 1280 1024">
  <defs>
    <style>
      .cls-1 {
        fill: #fff;
      }
    </style>
  </defs>
  <path class="cls-1" d="M52.66,510.74h316.51c12.01,0,22.93,6.93,28.06,17.79l75.42,159.92c5.12,10.86,16.05,17.79,28.06,17.79h267.86c12.08,0,23.06-7.02,28.14-17.98l73.92-159.54c5.08-10.96,16.06-17.98,28.14-17.98h319.06c17.13,0,31.02,13.89,31.02,31.02v432.37c0,17.13-13.89,31.02-31.02,31.02H52.66c-17.13,0-31.02-13.89-31.02-31.02v-432.37c0-17.13,13.89-31.02,31.02-31.02Z"/>
</svg>