<svg width="1250" height="835" viewBox="0 0 1250 835" fill="none" xmlns="http://www.w3.org/2000/svg">
<g filter="url(#filter0_d_94_406)">
<path d="M990.71 225.19L994.43 238.81L1006.26 240.75L994.43 244.47L990.71 256.31L986.99 244.47L975.15 240.75L986.99 238.81L990.71 225.19Z" fill="white"/>
<path d="M1044.1 410.27L1047.82 423.89L1059.65 425.83L1047.82 429.55L1044.1 441.39L1040.37 429.55L1028.54 425.83L1040.37 423.89L1044.1 410.27Z" fill="white"/>
<path d="M994.27 597.13L997.99 610.75L1009.82 612.69L997.99 616.41L994.27 628.25L990.54 616.41L978.71 612.69L990.54 610.75L994.27 597.13Z" fill="white"/>
<path d="M857.23 734.17L860.95 747.78L872.79 749.72L860.95 753.45L857.23 765.28L853.51 753.45L841.68 749.72L853.51 747.78L857.23 734.17Z" fill="white"/>
<path d="M670.37 787.56L674.09 801.17L685.93 803.11L674.09 806.83L670.37 818.67L666.65 806.83L654.81 803.11L666.65 801.17L670.37 787.56Z" fill="white"/>
<path d="M485.29 734.17L489.01 747.78L500.85 749.72L489.01 753.45L485.29 765.28L481.57 753.45L469.73 749.72L481.57 747.78L485.29 734.17Z" fill="white"/>
<path d="M346.48 597.13L350.2 610.75L362.04 612.69L350.2 616.41L346.48 628.25L342.76 616.41L330.92 612.69L342.76 610.75L346.48 597.13Z" fill="white"/>
<path d="M294.87 412.05L298.59 425.67L310.43 427.61L298.59 431.33L294.87 443.17L291.15 431.33L279.31 427.61L291.15 425.67L294.87 412.05Z" fill="white"/>
<path d="M346.48 225.19L350.2 238.81L362.04 240.75L350.2 244.47L346.48 256.31L342.76 244.47L330.92 240.75L342.76 238.81L346.48 225.19Z" fill="white"/>
<path d="M483.51 88.16L487.23 101.78L499.07 103.72L487.23 107.44L483.51 119.28L479.79 107.44L467.95 103.72L479.79 101.78L483.51 88.16Z" fill="white"/>
<path d="M670.37 34.77L674.09 48.39L685.93 50.33L674.09 54.05L670.37 65.89L666.65 54.05L654.81 50.33L666.65 48.39L670.37 34.77Z" fill="white"/>
<path d="M857.23 86.38L860.95 100L872.79 101.94L860.95 105.66L857.23 117.5L853.51 105.66L841.68 101.94L853.51 100L857.23 86.38Z" fill="white"/>
</g>
<g filter="url(#filter1_d_94_406)">
<path d="M1009.23 16L1012 31.99L1023.67 31.25L1014.77 36.78L1018.82 42.32L1012 41.58L1009.23 57.56L1006.46 41.58L999.64 42.32L1003.69 36.78L994.78 31.25L1006.46 31.99L1009.23 16Z" fill="white"/>
</g>
<g filter="url(#filter2_d_94_406)">
<path d="M1189.05 222.21L1191.82 238.2L1203.49 237.46L1194.58 242.99L1198.64 248.53L1191.82 247.79L1189.05 263.78L1186.28 247.79L1179.46 248.53L1183.51 242.99L1174.6 237.46L1186.28 238.2L1189.05 222.21Z" fill="white"/>
</g>
<g filter="url(#filter3_d_94_406)">
<path d="M1001.03 645.12L1003.8 661.1L1015.48 660.36L1006.57 665.9L1010.62 671.44L1003.8 670.7L1001.03 686.68L998.26 670.7L991.44 671.44L995.5 665.9L986.59 660.36L998.26 661.1L1001.03 645.12Z" fill="white"/>
</g>
<g filter="url(#filter4_d_94_406)">
<path d="M1043.9 738.48L1045.99 750.53L1054.79 749.97L1048.08 754.15L1051.13 758.32L1045.99 757.76L1043.9 769.81L1041.81 757.76L1036.67 758.32L1039.73 754.15L1033.01 749.97L1041.81 750.53L1043.9 738.48Z" fill="white"/>
</g>
<g filter="url(#filter5_d_94_406)">
<path d="M283.02 32.85L285.79 48.84L297.47 48.09L288.56 53.63L292.61 59.17L285.79 58.43L283.02 74.41L280.25 58.43L273.43 59.17L277.49 53.63L268.58 48.09L280.25 48.84L283.02 32.85Z" fill="white"/>
</g>
<g filter="url(#filter6_d_94_406)">
<path d="M152.83 373.1L155.59 389.09L167.27 388.35L158.36 393.88L162.42 399.42L155.59 398.68L152.83 414.66L150.06 398.68L143.23 399.42L147.29 393.88L138.38 388.35L150.06 389.09L152.83 373.1Z" fill="white"/>
</g>
<g filter="url(#filter7_d_94_406)">
<path d="M346.99 97.05L348.37 105.05L354.21 104.68L349.75 107.45L351.78 110.21L348.37 109.84L346.99 117.84L345.6 109.84L342.19 110.21L344.22 107.45L339.76 104.68L345.6 105.05L346.99 97.05Z" fill="white"/>
</g>
<g filter="url(#filter8_d_94_406)">
<path d="M291.12 731.23L293.89 747.22L305.56 746.48L296.66 752.02L300.71 757.55L293.89 756.81L291.12 772.8L288.35 756.81L281.53 757.55L285.58 752.02L276.67 746.48L288.35 747.22L291.12 731.23Z" fill="white"/>
</g>
<path d="M360.74 709.48L362.49 719.6L369.88 719.14L364.24 722.64L366.81 726.15L362.49 725.68L360.74 735.8L358.98 725.68L354.66 726.15L357.23 722.64L351.59 719.14L358.98 719.6L360.74 709.48Z" fill="white"/>
<g filter="url(#filter9_d_94_406)">
<path d="M1024.79 93.1899L1026.54 103.31L1033.93 102.84L1028.29 106.35L1030.86 109.85L1026.54 109.38L1024.79 119.51L1023.03 109.38L1018.71 109.85L1021.28 106.35L1015.64 102.84L1023.03 103.31L1024.79 93.1899Z" fill="white"/>
</g>
<g filter="url(#filter10_d_94_406)">
<path d="M1224.64 507.17L1226.39 517.29L1233.79 516.82L1228.15 520.33L1230.71 523.84L1226.39 523.37L1224.64 533.49L1222.89 523.37L1218.57 523.84L1221.13 520.33L1215.49 516.82L1222.89 517.29L1224.64 507.17Z" fill="white"/>
</g>
<g filter="url(#filter11_d_94_406)">
<path d="M161.97 548.78L163.73 558.91L171.12 558.44L165.48 561.94L168.05 565.45L163.73 564.98L161.97 575.1L160.22 564.98L155.9 565.45L158.47 561.94L152.83 558.44L160.22 558.91L161.97 548.78Z" fill="white"/>
</g>
<g filter="url(#filter12_d_94_406)">
<path d="M117.73 177.73L119.48 187.86L126.88 187.39L121.24 190.89L123.8 194.4L119.48 193.93L117.73 204.05L115.98 193.93L111.66 194.4L114.22 190.89L108.58 187.39L115.98 187.86L117.73 177.73Z" fill="white"/>
</g>
<g filter="url(#filter13_d_94_406)">
<path d="M34.3 497.6L36.69 511.4L46.77 510.76L39.08 515.54L42.58 520.33L36.69 519.68L34.3 533.49L31.91 519.68L26.02 520.33L29.52 515.54L21.82 510.76L31.91 511.4L34.3 497.6Z" fill="white"/>
</g>
<g filter="url(#filter14_d_94_406)">
<path d="M1174.04 621.32L1176.43 635.12L1186.51 634.48L1178.82 639.26L1182.32 644.04L1176.43 643.4L1174.04 657.2L1171.65 643.4L1165.76 644.04L1169.26 639.26L1161.57 634.48L1171.65 635.12L1174.04 621.32Z" fill="white"/>
</g>
<g filter="url(#filter15_d_94_406)">
<path d="M813.88 401.8C813.88 489.76 742.57 561.07 654.61 561.07C566.65 561.07 495.34 489.76 495.34 401.8C495.34 313.84 566.65 242.53 654.61 242.53C654.61 242.53 641.56 238.97 628.24 238.97C524.73 238.97 440.82 322.88 440.82 426.39C440.82 529.9 524.73 613.81 628.24 613.81C731.75 613.81 815.66 529.9 815.66 426.39C815.66 417.58 813.88 401.35 813.88 401.8Z" fill="white"/>
</g>
<defs>
<filter id="filter0_d_94_406" x="263.31" y="18.77" width="812.34" height="815.9" filterUnits="userSpaceOnUse" color-interpolation-filters="sRGB">
<feFlood flood-opacity="0" result="BackgroundImageFix"/>
<feColorMatrix in="SourceAlpha" type="matrix" values="0 0 0 0 0 0 0 0 0 0 0 0 0 0 0 0 0 0 127 0" result="hardAlpha"/>
<feOffset/>
<feGaussianBlur stdDeviation="8"/>
<feColorMatrix type="matrix" values="0 0 0 0 1 0 0 0 0 0.352941 0 0 0 0 0.980392 0 0 0 0.95 0"/>
<feBlend mode="normal" in2="BackgroundImageFix" result="effect1_dropShadow_94_406"/>
<feBlend mode="normal" in="SourceGraphic" in2="effect1_dropShadow_94_406" result="shape"/>
</filter>
<filter id="filter1_d_94_406" x="978.78" y="0" width="60.89" height="73.5599" filterUnits="userSpaceOnUse" color-interpolation-filters="sRGB">
<feFlood flood-opacity="0" result="BackgroundImageFix"/>
<feColorMatrix in="SourceAlpha" type="matrix" values="0 0 0 0 0 0 0 0 0 0 0 0 0 0 0 0 0 0 127 0" result="hardAlpha"/>
<feOffset/>
<feGaussianBlur stdDeviation="8"/>
<feColorMatrix type="matrix" values="0 0 0 0 1 0 0 0 0 0.352941 0 0 0 0 0.980392 0 0 0 0.95 0"/>
<feBlend mode="normal" in2="BackgroundImageFix" result="effect1_dropShadow_94_406"/>
<feBlend mode="normal" in="SourceGraphic" in2="effect1_dropShadow_94_406" result="shape"/>
</filter>
<filter id="filter2_d_94_406" x="1158.6" y="206.21" width="60.89" height="73.5699" filterUnits="userSpaceOnUse" color-interpolation-filters="sRGB">
<feFlood flood-opacity="0" result="BackgroundImageFix"/>
<feColorMatrix in="SourceAlpha" type="matrix" values="0 0 0 0 0 0 0 0 0 0 0 0 0 0 0 0 0 0 127 0" result="hardAlpha"/>
<feOffset/>
<feGaussianBlur stdDeviation="8"/>
<feColorMatrix type="matrix" values="0 0 0 0 1 0 0 0 0 0.352941 0 0 0 0 0.980392 0 0 0 0.95 0"/>
<feBlend mode="normal" in2="BackgroundImageFix" result="effect1_dropShadow_94_406"/>
<feBlend mode="normal" in="SourceGraphic" in2="effect1_dropShadow_94_406" result="shape"/>
</filter>
<filter id="filter3_d_94_406" x="970.59" y="629.12" width="60.89" height="73.5601" filterUnits="userSpaceOnUse" color-interpolation-filters="sRGB">
<feFlood flood-opacity="0" result="BackgroundImageFix"/>
<feColorMatrix in="SourceAlpha" type="matrix" values="0 0 0 0 0 0 0 0 0 0 0 0 0 0 0 0 0 0 127 0" result="hardAlpha"/>
<feOffset/>
<feGaussianBlur stdDeviation="8"/>
<feColorMatrix type="matrix" values="0 0 0 0 1 0 0 0 0 0.352941 0 0 0 0 0.980392 0 0 0 0.95 0"/>
<feBlend mode="normal" in2="BackgroundImageFix" result="effect1_dropShadow_94_406"/>
<feBlend mode="normal" in="SourceGraphic" in2="effect1_dropShadow_94_406" result="shape"/>
</filter>
<filter id="filter4_d_94_406" x="1017.01" y="722.48" width="53.78" height="63.33" filterUnits="userSpaceOnUse" color-interpolation-filters="sRGB">
<feFlood flood-opacity="0" result="BackgroundImageFix"/>
<feColorMatrix in="SourceAlpha" type="matrix" values="0 0 0 0 0 0 0 0 0 0 0 0 0 0 0 0 0 0 127 0" result="hardAlpha"/>
<feOffset/>
<feGaussianBlur stdDeviation="8"/>
<feColorMatrix type="matrix" values="0 0 0 0 1 0 0 0 0 0.352941 0 0 0 0 0.980392 0 0 0 0.95 0"/>
<feBlend mode="normal" in2="BackgroundImageFix" result="effect1_dropShadow_94_406"/>
<feBlend mode="normal" in="SourceGraphic" in2="effect1_dropShadow_94_406" result="shape"/>
</filter>
<filter id="filter5_d_94_406" x="252.58" y="16.85" width="60.89" height="73.5601" filterUnits="userSpaceOnUse" color-interpolation-filters="sRGB">
<feFlood flood-opacity="0" result="BackgroundImageFix"/>
<feColorMatrix in="SourceAlpha" type="matrix" values="0 0 0 0 0 0 0 0 0 0 0 0 0 0 0 0 0 0 127 0" result="hardAlpha"/>
<feOffset/>
<feGaussianBlur stdDeviation="8"/>
<feColorMatrix type="matrix" values="0 0 0 0 1 0 0 0 0 0.352941 0 0 0 0 0.980392 0 0 0 0.95 0"/>
<feBlend mode="normal" in2="BackgroundImageFix" result="effect1_dropShadow_94_406"/>
<feBlend mode="normal" in="SourceGraphic" in2="effect1_dropShadow_94_406" result="shape"/>
</filter>
<filter id="filter6_d_94_406" x="122.38" y="357.1" width="60.89" height="73.5601" filterUnits="userSpaceOnUse" color-interpolation-filters="sRGB">
<feFlood flood-opacity="0" result="BackgroundImageFix"/>
<feColorMatrix in="SourceAlpha" type="matrix" values="0 0 0 0 0 0 0 0 0 0 0 0 0 0 0 0 0 0 127 0" result="hardAlpha"/>
<feOffset/>
<feGaussianBlur stdDeviation="8"/>
<feColorMatrix type="matrix" values="0 0 0 0 1 0 0 0 0 0.352941 0 0 0 0 0.980392 0 0 0 0.95 0"/>
<feBlend mode="normal" in2="BackgroundImageFix" result="effect1_dropShadow_94_406"/>
<feBlend mode="normal" in="SourceGraphic" in2="effect1_dropShadow_94_406" result="shape"/>
</filter>
<filter id="filter7_d_94_406" x="323.76" y="81.05" width="46.45" height="52.79" filterUnits="userSpaceOnUse" color-interpolation-filters="sRGB">
<feFlood flood-opacity="0" result="BackgroundImageFix"/>
<feColorMatrix in="SourceAlpha" type="matrix" values="0 0 0 0 0 0 0 0 0 0 0 0 0 0 0 0 0 0 127 0" result="hardAlpha"/>
<feOffset/>
<feGaussianBlur stdDeviation="8"/>
<feColorMatrix type="matrix" values="0 0 0 0 1 0 0 0 0 0.352941 0 0 0 0 0.980392 0 0 0 0.95 0"/>
<feBlend mode="normal" in2="BackgroundImageFix" result="effect1_dropShadow_94_406"/>
<feBlend mode="normal" in="SourceGraphic" in2="effect1_dropShadow_94_406" result="shape"/>
</filter>
<filter id="filter8_d_94_406" x="260.67" y="715.23" width="60.89" height="73.5699" filterUnits="userSpaceOnUse" color-interpolation-filters="sRGB">
<feFlood flood-opacity="0" result="BackgroundImageFix"/>
<feColorMatrix in="SourceAlpha" type="matrix" values="0 0 0 0 0 0 0 0 0 0 0 0 0 0 0 0 0 0 127 0" result="hardAlpha"/>
<feOffset/>
<feGaussianBlur stdDeviation="8"/>
<feColorMatrix type="matrix" values="0 0 0 0 1 0 0 0 0 0.352941 0 0 0 0 0.980392 0 0 0 0.95 0"/>
<feBlend mode="normal" in2="BackgroundImageFix" result="effect1_dropShadow_94_406"/>
<feBlend mode="normal" in="SourceGraphic" in2="effect1_dropShadow_94_406" result="shape"/>
</filter>
<filter id="filter9_d_94_406" x="999.64" y="77.1899" width="50.29" height="58.3199" filterUnits="userSpaceOnUse" color-interpolation-filters="sRGB">
<feFlood flood-opacity="0" result="BackgroundImageFix"/>
<feColorMatrix in="SourceAlpha" type="matrix" values="0 0 0 0 0 0 0 0 0 0 0 0 0 0 0 0 0 0 127 0" result="hardAlpha"/>
<feOffset/>
<feGaussianBlur stdDeviation="8"/>
<feColorMatrix type="matrix" values="0 0 0 0 1 0 0 0 0 0.352941 0 0 0 0 0.980392 0 0 0 0.95 0"/>
<feBlend mode="normal" in2="BackgroundImageFix" result="effect1_dropShadow_94_406"/>
<feBlend mode="normal" in="SourceGraphic" in2="effect1_dropShadow_94_406" result="shape"/>
</filter>
<filter id="filter10_d_94_406" x="1199.49" y="491.17" width="50.3" height="58.3201" filterUnits="userSpaceOnUse" color-interpolation-filters="sRGB">
<feFlood flood-opacity="0" result="BackgroundImageFix"/>
<feColorMatrix in="SourceAlpha" type="matrix" values="0 0 0 0 0 0 0 0 0 0 0 0 0 0 0 0 0 0 127 0" result="hardAlpha"/>
<feOffset/>
<feGaussianBlur stdDeviation="8"/>
<feColorMatrix type="matrix" values="0 0 0 0 1 0 0 0 0 0.352941 0 0 0 0 0.980392 0 0 0 0.95 0"/>
<feBlend mode="normal" in2="BackgroundImageFix" result="effect1_dropShadow_94_406"/>
<feBlend mode="normal" in="SourceGraphic" in2="effect1_dropShadow_94_406" result="shape"/>
</filter>
<filter id="filter11_d_94_406" x="136.83" y="532.78" width="50.29" height="58.3199" filterUnits="userSpaceOnUse" color-interpolation-filters="sRGB">
<feFlood flood-opacity="0" result="BackgroundImageFix"/>
<feColorMatrix in="SourceAlpha" type="matrix" values="0 0 0 0 0 0 0 0 0 0 0 0 0 0 0 0 0 0 127 0" result="hardAlpha"/>
<feOffset/>
<feGaussianBlur stdDeviation="8"/>
<feColorMatrix type="matrix" values="0 0 0 0 1 0 0 0 0 0.352941 0 0 0 0 0.980392 0 0 0 0.95 0"/>
<feBlend mode="normal" in2="BackgroundImageFix" result="effect1_dropShadow_94_406"/>
<feBlend mode="normal" in="SourceGraphic" in2="effect1_dropShadow_94_406" result="shape"/>
</filter>
<filter id="filter12_d_94_406" x="92.58" y="161.73" width="50.3" height="58.3199" filterUnits="userSpaceOnUse" color-interpolation-filters="sRGB">
<feFlood flood-opacity="0" result="BackgroundImageFix"/>
<feColorMatrix in="SourceAlpha" type="matrix" values="0 0 0 0 0 0 0 0 0 0 0 0 0 0 0 0 0 0 127 0" result="hardAlpha"/>
<feOffset/>
<feGaussianBlur stdDeviation="8"/>
<feColorMatrix type="matrix" values="0 0 0 0 1 0 0 0 0 0.352941 0 0 0 0 0.980392 0 0 0 0.95 0"/>
<feBlend mode="normal" in2="BackgroundImageFix" result="effect1_dropShadow_94_406"/>
<feBlend mode="normal" in="SourceGraphic" in2="effect1_dropShadow_94_406" result="shape"/>
</filter>
<filter id="filter13_d_94_406" x="0" y="475.78" width="68.59" height="79.53" filterUnits="userSpaceOnUse" color-interpolation-filters="sRGB">
<feFlood flood-opacity="0" result="BackgroundImageFix"/>
<feColorMatrix in="SourceAlpha" type="matrix" values="0 0 0 0 0 0 0 0 0 0 0 0 0 0 0 0 0 0 127 0" result="hardAlpha"/>
<feOffset/>
<feGaussianBlur stdDeviation="10.91"/>
<feColorMatrix type="matrix" values="0 0 0 0 1 0 0 0 0 0.352941 0 0 0 0 0.980392 0 0 0 0.95 0"/>
<feBlend mode="normal" in2="BackgroundImageFix" result="effect1_dropShadow_94_406"/>
<feBlend mode="normal" in="SourceGraphic" in2="effect1_dropShadow_94_406" result="shape"/>
</filter>
<filter id="filter14_d_94_406" x="1139.75" y="599.5" width="68.5801" height="79.52" filterUnits="userSpaceOnUse" color-interpolation-filters="sRGB">
<feFlood flood-opacity="0" result="BackgroundImageFix"/>
<feColorMatrix in="SourceAlpha" type="matrix" values="0 0 0 0 0 0 0 0 0 0 0 0 0 0 0 0 0 0 127 0" result="hardAlpha"/>
<feOffset/>
<feGaussianBlur stdDeviation="10.91"/>
<feColorMatrix type="matrix" values="0 0 0 0 1 0 0 0 0 0.352941 0 0 0 0 0.980392 0 0 0 0.95 0"/>
<feBlend mode="normal" in2="BackgroundImageFix" result="effect1_dropShadow_94_406"/>
<feBlend mode="normal" in="SourceGraphic" in2="effect1_dropShadow_94_406" result="shape"/>
</filter>
<filter id="filter15_d_94_406" x="424.82" y="222.97" width="406.84" height="406.84" filterUnits="userSpaceOnUse" color-interpolation-filters="sRGB">
<feFlood flood-opacity="0" result="BackgroundImageFix"/>
<feColorMatrix in="SourceAlpha" type="matrix" values="0 0 0 0 0 0 0 0 0 0 0 0 0 0 0 0 0 0 127 0" result="hardAlpha"/>
<feOffset/>
<feGaussianBlur stdDeviation="8"/>
<feColorMatrix type="matrix" values="0 0 0 0 1 0 0 0 0 0.952941 0 0 0 0 0.772549 0 0 0 0.95 0"/>
<feBlend mode="normal" in2="BackgroundImageFix" result="effect1_dropShadow_94_406"/>
<feBlend mode="normal" in="SourceGraphic" in2="effect1_dropShadow_94_406" result="shape"/>
</filter>
</defs>
</svg>
